<?xml version="1.0" standalone="no"?>
<!DOCTYPE svg PUBLIC "-//W3C//DTD SVG 1.1//EN" "http://www.w3.org/Graphics/SVG/1.1/DTD/svg11.dtd" >
<svg xmlns="http://www.w3.org/2000/svg">
<metadata>Generated by IcoMoon</metadata>
<defs>
<font id="infinitum" horiz-adv-x="1024">
<font-face units-per-em="1024" ascent="960" descent="-64" />
<missing-glyph horiz-adv-x="1024" />
<glyph unicode="&#x20;" horiz-adv-x="512" d="" />
<glyph unicode="&#xe900;" glyph-name="pencil" d="M5.263 29.798c-10.621-25.329-4.872-54.563 14.55-73.985s48.656-25.17 73.985-14.546l247.549 103.798-232.285 232.282-103.798-247.549zM1004.191 772.792l-167.402 167.398c-26.414 26.414-69.24 26.414-95.658 0l-570.050-570.060c-0.145-0.142-0.266-0.3-0.408-0.445l263.015-263.015c0.145 0.142 0.303 0.263 0.445 0.404l570.057 570.057c26.414 26.417 26.414 69.244 0 95.661z" />
<glyph unicode="&#xe901;" glyph-name="quote-symbol" d="M1024 945.499v-514.286c0-320.547-117.141-480.799-351.465-480.799-25.91 0-65.494 1.785-118.839 5.139v199.008c162.081 0 242.903 74.944 242.903 224.788l-2.613 90.49h-167.916v475.573l397.929 0.087zM51.733 469.969h167.916l2.613-90.446c0-141.222-74.073-216.209-222.262-224.831v-199.008c46.464-3.397 79.211-5.095 98.154-5.095 234.325 0 351.465 160.252 351.465 480.755v514.243h-397.973v-475.573l0.087-0.044z" />
<glyph unicode="&#xe902;" glyph-name="push-pin" d="M283.876 310.070l-260.238-318.116c-6.774-8.292-7.034-20.48 0-29.070 8.004-9.836 22.494-11.292 32.294-3.25l318.214 260.262c-16.26 14.48-31.91 29.196-46.488 43.786-15.26 15.252-29.84 30.802-43.782 46.388zM895.78 831.8c-88.98 89.004-189.512 132.692-224.618 97.692-1.806-1.816-185.514-252.394-277.592-377.96-60.332 43-114.438 68.164-149.312 68.136-12.748 0-22.97-3.324-29.942-10.36-38.394-38.328 33.292-172.152 160.056-298.918 103.594-103.594 211.942-170.446 268.976-170.446 12.774 0 22.944 3.36 29.942 10.356 26.168 26.168 1.096 96.82-57.716 179.316 125.604 92.086 376.094 275.786 377.864 277.562 35.070 35.036-8.678 135.608-97.658 224.622z" />
<glyph unicode="&#xe903;" glyph-name="portfolio-menu" d="M0 960h458.666v-458.666h-458.666v458.666zM565.334 960h458.666v-458.666h-458.666v458.666zM0 394.666h458.666v-458.666h-458.666v458.666zM565.334 394.666h458.666v-458.666h-458.666v458.666z" />
<glyph unicode="&#xe904;" glyph-name="play-button" d="M955.316 703.958c-141.36 244.843-454.453 328.737-699.276 187.351-244.843-141.34-328.74-454.421-187.355-699.254 141.34-244.843 454.424-328.75 699.25-187.378 244.846 141.389 328.783 454.453 187.381 699.28zM716.756 93.372c-195.845-113.111-446.335-45.992-559.413 149.892-113.105 195.845-45.962 446.331 149.889 559.387 195.858 113.105 446.335 45.992 559.42-149.886 113.088-195.874 45.966-446.309-149.895-559.394zM696.283 468.808l-268.054 156.335c-24.427 14.261-44.13 2.859-43.993-25.396l1.373-310.309c0.124-28.248 20.068-39.748 44.567-25.598l266.003 153.577c24.473 14.124 24.525 37.13 0.104 51.391z" />
<glyph unicode="&#xe905;" glyph-name="envelope" d="M1023.266 706.72c-0.042 28.897-23.563 52.376-52.452 52.376-0.024 0-0.048 0-0.068 0l-918.345-1.262c-14.009-0.018-27.175-5.492-37.068-15.411-9.892-9.922-15.327-23.103-15.309-37.108l0.71-516.033c0.018-14.009 5.492-27.175 15.411-37.068 9.902-9.876 23.051-15.309 37.036-15.309 0.024 0 0.050 0 0.070 0l918.343 1.262c28.915 0.040 52.412 23.597 52.378 52.52l-0.706 516.035zM913.201 706.568l-401.162-278.874-401.94 277.77 803.102 1.104zM681.683 375.062l237.93-184.521-815.904-1.12 239.381 185.641c11.443 8.878 13.527 25.349 4.652 36.796-8.878 11.443-25.349 13.527-36.796 4.652l-257.801-199.929-0.64 464.927 444.666-307.299c4.488-3.102 9.698-4.65 14.909-4.65 5.234 0 10.472 1.566 14.969 4.692l443.802 308.513 0.672-466.109-257.699 199.853c-11.437 8.874-27.917 6.792-36.792-4.652-8.878-11.443-6.796-27.919 4.652-36.794z" />
<glyph unicode="&#xe906;" glyph-name="close-button" d="M1024 857.6l-102.4 102.4-409.6-409.6-409.6 409.6-102.4-102.4 409.6-409.6-409.6-409.6 102.4-102.4 409.6 409.6 409.6-409.6 102.4 102.4-409.6 409.6z" />
<glyph unicode="&#xe907;" glyph-name="forbidden-mark" d="M861.196 953.847c-8.204 8.204-21.633 8.204-29.837 0l-304.44-304.44c-8.204-8.204-21.633-8.204-29.837 0l-304.434 304.44c-8.204 8.204-21.633 8.204-29.837 0l-156.657-156.651c-8.204-8.204-8.204-21.633 0-29.837l304.44-304.44c8.204-8.204 8.204-21.633 0-29.837l-304.44-304.44c-8.204-8.204-8.204-21.633 0-29.837l156.651-156.651c8.204-8.204 21.633-8.204 29.837 0l304.44 304.44c8.204 8.204 21.633 8.204 29.837 0l304.434-304.434c8.204-8.204 21.633-8.204 29.837 0l156.651 156.651c8.204 8.204 8.204 21.633 0 29.837l-304.434 304.434c-8.204 8.204-8.204 21.633 0 29.837l304.434 304.434c8.204 8.204 8.204 21.633 0 29.837l-156.645 156.657z" />
<glyph unicode="&#xe908;" glyph-name="check-mark" d="M1005.502 732.078l-89.846 89.846c-12.319 12.329-27.302 18.495-44.914 18.495-17.628 0-32.611-6.167-44.93-18.495l-433.389-434.044-194.231 194.893c-12.333 12.333-27.307 18.493-44.918 18.493-17.623 0-32.597-6.16-44.93-18.493l-89.846-89.848c-12.333-12.331-18.498-27.309-18.498-44.93 0-17.607 6.164-32.599 18.498-44.928l329.002-328.991c12.326-12.338 27.305-18.498 44.923-18.498 17.611 0 32.59 6.176 44.923 18.498l568.156 568.149c12.322 12.333 18.498 27.309 18.498 44.93 0.009 17.611-6.176 32.59-18.498 44.923z" />
<glyph unicode="&#xe909;" glyph-name="star" d="M512 187.733l315.733-230.4-119.467 375.467 315.733 221.867h-384l-128 384-128-384h-384l315.733-221.867-119.467-375.467z" />
<glyph unicode="&#xe90a;" glyph-name="heart" d="M1024 614.992c0 152.723-123.808 276.525-276.532 276.525-99.725 0-186.817-52.962-235.471-132.113-48.648 79.151-135.777 132.113-235.501 132.113-152.723 0-276.496-123.802-276.496-276.525 0-83.149 36.846-157.539 94.916-208.196l391.846-391.863c6.692-6.692 15.768-10.452 25.234-10.452s18.542 3.76 25.234 10.452l391.846 391.863c58.073 50.658 94.923 125.047 94.923 208.196z" />
<glyph unicode="&#xe90b;" glyph-name="expand" d="M377.433 403.144l-201.862-201.854-67.28 67.285c-18.143 18.147-45.429 23.564-69.133 13.753-23.704-9.82-39.157-32.953-39.157-58.611v-224.277c0-35.034 28.403-63.436 63.436-63.436l224.281-0.004c0.030 0.004 0.051 0.004 0.080 0 35.038 0 63.436 28.403 63.436 63.436 0 18.511-7.93 35.169-20.574 46.769l-65.373 65.373 201.854 201.85c24.774 24.774 24.774 64.938 0 89.711-24.765 24.778-64.938 24.774-89.707 0.004zM960.564 960h-224.281c-25.658 0-48.787-15.457-58.607-39.161-9.816-23.704-4.39-50.99 13.753-69.133l67.289-67.289-201.85-201.854c-24.774-24.774-24.774-64.938 0-89.711 12.387-12.387 28.622-18.578 44.854-18.578 16.235 0 32.471 6.191 44.854 18.583l201.854 201.854 67.28-67.285c12.133-12.137 28.36-18.583 44.866-18.583 8.175 0 16.417 1.577 24.262 4.83 23.704 9.82 39.161 32.953 39.161 58.607v224.285c0 35.034-28.403 63.436-63.436 63.436z" />
<glyph unicode="&#xe90c;" glyph-name="plus2" d="M968.428 519.442h-384.988v384.99c0 17.538-23.815 55.566-71.442 55.566s-71.442-38.030-71.442-55.566v-384.992h-384.99c-17.536 0.002-55.566-23.813-55.566-71.438s38.030-71.442 55.566-71.442h384.992v-384.992c0-17.534 23.813-55.566 71.442-55.566s71.442 38.032 71.442 55.566v384.992h384.992c17.534 0 55.566 23.813 55.566 71.442s-38.036 71.44-55.572 71.44z" />
<glyph unicode="&#xe90d;" glyph-name="emain" d="M902.463 836.876h-780.923c-67.017 0-121.54-52.361-121.54-116.719v-544.314c0-64.358 54.523-116.719 121.54-116.719h780.923c67.017 0 121.537 52.361 121.537 116.719v544.314c0 64.358-54.521 116.719-121.537 116.719zM902.463 162.168h-780.923c-9.851 0-18.491 6.389-18.491 13.675v472.338l353.191-298.182c7.241-6.115 16.449-9.481 25.93-9.481l59.65-0.003c9.476 0 18.689 3.369 25.932 9.484l353.207 298.193v-472.354c-0.005-7.281-8.648-13.67-18.496-13.67zM512.001 442.832l-343.522 291h687.044l-343.522-291z" />
<glyph unicode="&#xe90e;" glyph-name="phone" d="M204.8 516.267c79.644-159.289 216.178-290.133 375.467-375.467l125.156 125.156c17.064 17.064 39.822 22.753 56.889 11.378 62.578-22.756 130.842-34.133 204.8-34.133 34.133 0 56.889-22.756 56.889-56.889v-193.422c0-34.133-22.756-56.889-56.889-56.889-534.756 0-967.111 432.356-967.111 967.111 0 34.133 22.756 56.889 56.889 56.889h199.111c34.133 0 56.889-22.756 56.889-56.889 0-68.267 11.378-136.533 34.133-204.8 5.689-17.067 0-39.822-11.378-56.889l-130.844-125.156z" />
<glyph unicode="&#xe90f;" glyph-name="arrow-bottom" d="M1024 644.267l-119.467 119.467-392.533-392.533-392.533 392.533-119.467-119.467 512-512z" />
<glyph unicode="&#xe910;" glyph-name="arrow-top" d="M1024 251.733l-119.467-119.467-392.533 392.533-392.533-392.533-119.467 119.467 512 512z" />
<glyph unicode="&#xe911;" glyph-name="arrow-left" d="M708.267 960l119.467-119.467-392.533-392.533 392.533-392.533-119.467-119.467-512 512z" />
<glyph unicode="&#xe912;" glyph-name="arrow-right" d="M315.733 960l-119.467-119.467 392.533-392.533-392.533-392.533 119.467-119.467 512 512z" />
<glyph unicode="&#xe913;" glyph-name="menu" d="M924.903 910.452h-825.806c-54.503 0-99.097-44.594-99.097-99.097s44.594-99.097 99.097-99.097h825.806c54.503 0 99.097 44.594 99.097 99.097s-44.594 99.097-99.097 99.097zM924.903 547.097h-825.806c-54.503 0-99.097-44.594-99.097-99.097s44.594-99.097 99.097-99.097h825.806c54.503 0 99.097 44.594 99.097 99.097s-44.594 99.097-99.097 99.097zM924.903 183.742h-825.806c-54.503 0-99.097-44.594-99.097-99.097s44.594-99.097 99.097-99.097h825.806c54.503 0 99.097 44.594 99.097 99.097s-44.594 99.097-99.097 99.097z" />
<glyph unicode="&#xe914;" glyph-name="search" d="M998.935 82.081l-222.458 222.454c-1.182 1.182-2.569 2.009-3.805 3.109 43.772 66.399 69.32 145.881 69.32 231.356 0 232.513-188.487 421-420.996 421s-420.996-188.487-420.996-420.996c0-232.505 188.483-420.996 420.992-420.996 85.479 0 164.956 25.548 231.356 69.32 1.1-1.231 1.923-2.618 3.105-3.8l222.462-222.462c33.418-33.414 87.598-33.414 121.020 0 33.414 33.418 33.414 87.598 0 121.016zM420.996 263.953c-151.911 0-275.054 123.144-275.054 275.050 0 151.911 123.148 275.054 275.054 275.054 151.902 0 275.050-123.148 275.050-275.054s-123.148-275.050-275.050-275.050z" />
<glyph unicode="&#xe915;" glyph-name="cart" d="M64.002 960h128c30.938 0 57.438-22.126 62.938-52.562l13.75-75.438h691.312c22.188 0 42.782-11.5 54.438-30.376s12.718-42.376 2.812-62.25l-192-384c-10.844-21.69-33-35.376-57.25-35.376h-406.188l11.624-64h330.564c35.344 0 64-28.626 64-64s-28.656-64-64-64h-384c-30.938 0-57.438 22.126-62.938 52.562l-118.5 651.44h-74.562c-35.376 0-64 28.626-64 64s28.622 64 64 64zM728.442 448l128 256h-564.502l46.562-256h389.94zM640.002 64c35.344 0 64-28.624 64-64s-28.656-64-64-64-64 28.624-64 64 28.66 64 64 64zM384.002 64c35.376 0 64-28.624 64-64s-28.624-64-64-64c-35.374 0-64 28.624-64 64s28.622 64 64 64z" />
<glyph unicode="&#xe916;" glyph-name="flickr" d="M512 960c-282.752 0-512-229.248-512-512s229.248-512 512-512 512 229.248 512 512c0 282.816-229.248 512-512 512zM323.583 319.744c-71.744 0-129.857 58.111-129.857 129.857s58.111 129.857 129.857 129.857 129.857-58.111 129.857-129.857-58.113-129.857-129.857-129.857zM701.76 319.744c-71.744 0-129.857 58.111-129.857 129.857s58.111 129.857 129.857 129.857 129.857-58.111 129.857-129.857-58.113-129.857-129.857-129.857z" />
<glyph unicode="&#xe917;" glyph-name="dribbble" d="M511.979 960c-282.775-0.021-511.979-229.239-511.979-512.021 0-282.732 229.204-511.976 511.979-511.976s511.988 229.244 512.019 511.976c-0.031 282.782-229.244 512-512.019 512.021zM825.687 694.533c49.955-63.435 81.233-141.983 85.178-227.761-57.8 12.268-112.411 18.239-163.324 18.239v0.012h-0.376c-40.989 0-79.457-3.721-115.714-10.151-8.811 21.596-17.744 42.339-26.743 62.206 80.745 35.416 158.248 85.845 220.978 157.455zM511.979 847.439c94.22 0 180.655-32.94 249.088-87.778-52.367-62.694-121.487-108.1-196.156-140.161-52.467 101.455-103.165 174.035-137.821 218.407 27.433 6.088 55.75 9.532 84.89 9.532zM335.544 805.799c27.726-32.749 83.238-104.784 142.528-217.25-120.582-35.894-242.005-44.327-315.472-44.306-2.095 0-4.166 0-6.199 0.021h-0.067c-12.373 0-23.012 0.195-31.895 0.467 28.662 114.69 107.233 209.674 211.105 261.067zM112.528 447.979c0 1.878 0.067 3.788 0.179 5.754 11.406-0.421 26.033-0.783 43.639-0.783h0.1c80.295 0.524 220.49 7.233 362.568 52.088 7.745-16.934 15.411-34.566 22.988-52.872-94.88-31.733-169.606-82.288-224.878-132.634-53.21-48.465-89.159-96.468-110.164-128.512-58.778 69.591-94.401 159.024-94.432 256.958zM511.979 48.511c-88.895 0-170.828 29.4-237.296 78.731 14.127 23.267 44.418 67.934 92.651 114.090 49.627 47.555 118.132 96.511 207.577 125.644 30.402-85.223 57.912-182.646 78.867-292.31-44.146-16.81-91.847-26.155-141.799-26.155zM738.056 119.443c-20.267 99.179-45.746 188.612-73.722 268.424 25.943 3.721 53.176 5.821 81.921 5.821h1.167c47.643 0 99.998-5.921 156.777-18.822-19.655-105.622-80.833-196.587-166.142-255.423z" />
<glyph unicode="&#xe918;" glyph-name="behance" d="M924.746 676.409h-256.577v63.732h256.598v-63.732h-0.021zM497.36 415.066c16.555-25.643 24.828-56.778 24.828-93.331 0-37.801-9.328-71.712-28.304-101.666-12.073-19.822-27.062-36.565-45.072-50.045-20.284-15.589-44.298-26.278-71.905-31.99-27.695-5.721-57.67-8.611-89.96-8.611h-286.948v637.151h307.707c77.561-1.262 132.549-23.733 165.019-67.865 19.484-27.066 29.138-59.544 29.138-97.295 0-38.953-9.77-70.122-29.445-93.803-10.944-13.277-27.112-25.355-48.514-36.256 32.418-11.868 57.016-30.556 73.455-56.29zM146.942 515.378h134.825c27.707 0 50.105 5.266 67.355 15.794 17.239 10.511 25.84 29.195 25.84 56.021 0 29.638-11.389 49.309-34.223 58.777-19.627 6.578-44.738 9.966-75.209 9.966h-118.588v-140.557zM387.945 330.837c0 33.097-13.527 55.978-40.527 68.255-15.098 6.978-36.401 10.544-63.715 10.799h-136.76v-169.797h134.644c27.662 0 49.071 3.621 64.522 11.175 27.864 13.889 41.836 40.322 41.836 79.568zM1019.943 434.491c3.1-20.846 4.502-51.090 3.933-90.622h-332.295c1.833-45.867 17.667-77.942 47.698-96.298 18.11-11.511 40.067-17.132 65.779-17.132 27.112 0 49.209 6.854 66.22 20.943 9.268 7.468 17.443 18.010 24.512 31.311h121.797c-3.19-27.090-17.855-54.566-44.21-82.487-40.832-44.379-98.097-66.631-171.642-66.631-60.756 0-114.3 18.767-160.777 56.166-46.322 37.53-69.586 98.395-69.586 182.827 0 79.175 20.886 139.777 62.798 181.958 42.067 42.26 96.357 63.294 163.277 63.294 39.665 0 75.421-7.090 107.32-21.343 31.799-14.268 58.080-36.723 78.778-67.584 18.731-27.178 30.778-58.604 36.399-94.402zM900.058 422.601c-2.233 31.716-12.823 55.721-31.89 72.126-18.91 16.451-42.534 24.709-70.722 24.709-30.678 0-54.366-8.828-71.198-26.178-16.946-17.315-27.49-40.855-31.811-70.66l205.62 0.002z" />
<glyph unicode="&#xe919;" glyph-name="android" d="M138.942 626.1h-2.623c-33.626 0-61.043-27.504-61.043-61.043v-265.772c0-33.671 27.417-61.086 61.043-61.086h2.668c33.626 0 61.043 27.504 61.043 61.086v265.774c-0.045 33.537-27.504 61.041-61.088 61.041zM229.239 196.7c0-30.871 25.23-56.014 56.101-56.014h59.951v-143.556c0-33.713 27.504-61.13 61.043-61.13h2.623c33.671 0 61.13 27.46 61.13 61.13v143.556h83.782v-143.556c0-33.713 27.591-61.13 61.13-61.13h2.581c33.669 0 61.086 27.46 61.086 61.13v143.556h59.993c30.827 0 56.059 25.143 56.059 56.014v419.649h-565.479v-419.649zM652.822 870.84l47.62 73.504c3.061 4.636 1.705 10.975-2.974 13.993-4.634 3.061-10.975 1.792-13.993-2.974l-49.367-76.042c-37.036 15.173-78.402 23.699-122.087 23.699-43.727 0-85.006-8.526-122.129-23.699l-49.28 76.042c-3.016 4.766-9.402 6.035-14.081 2.974-4.679-3.016-6.035-9.357-2.974-13.993l47.662-73.504c-85.924-42.11-143.862-121.474-143.862-212.513 0-5.597 0.351-11.107 0.831-16.572h567.707c0.48 5.465 0.787 10.975 0.787 16.572 0.002 91.039-57.98 170.403-143.86 212.513zM380.403 739.222c-15.086 0-27.33 12.157-27.33 27.285s12.244 27.243 27.33 27.243c15.173 0 27.33-12.112 27.33-27.243s-12.244-27.285-27.33-27.285zM643.597 739.222c-15.086 0-27.33 12.157-27.33 27.285s12.244 27.243 27.33 27.243c15.129 0 27.285-12.112 27.285-27.243 0-15.129-12.157-27.285-27.285-27.285zM887.636 626.1h-2.536c-33.626 0-61.13-27.504-61.13-61.043v-265.772c0-33.671 27.549-61.086 61.13-61.086h2.581c33.669 0 61.043 27.504 61.043 61.086v265.774c0 33.537-27.462 61.041-61.088 61.041z" />
<glyph unicode="&#xe91a;" glyph-name="apple" d="M564.85 882.438c36.773 43.236 98.93 75.401 150.221 77.562 6.542-60.063-17.533-120.206-53.123-163.544-35.647-43.258-93.992-76.959-151.256-72.465-7.782 58.766 21.060 120.047 54.158 158.447zM856.644 63.124c-42.564-62.407-86.585-124.45-156.080-125.759-68.403-1.297-90.317 40.63-168.38 40.63-78.12 0-102.582-39.333-167.14-41.938-67.095-2.526-118.124 67.425-161.018 129.559-87.643 127.067-154.567 359.265-64.592 515.982 44.555 77.824 124.405 127.056 210.91 128.364 65.9 1.217 128.148-44.567 168.38-44.567 40.323 0 115.883 54.966 195.3 46.899 33.246-1.377 126.555-13.437 186.493-101.399-4.745-3.118-111.377-65.365-110.091-195.026 1.297-154.897 135.293-206.359 136.863-207.064-1.229-3.641-21.436-73.489-70.645-145.681z" />
<glyph unicode="&#xe91b;" glyph-name="skype" d="M981.245 373.873c3.821 24.176 5.833 48.909 5.833 74.154 0 262.39-212.698 475.083-475.095 475.083-25.178 0-49.983-2.074-74.138-5.852-43.755 27.073-95.398 42.741-150.742 42.741-158.553 0-287.090-128.52-287.090-287.090 0-55.333 15.677-106.932 42.739-150.775-3.745-24.217-5.807-48.871-5.807-74.116 0-262.409 212.693-475.038 475.029-475.038 25.2 0 50.012 1.943 74.164 5.754 43.8-27.021 95.4-42.731 150.733-42.731 158.596 0 287.119 128.554 287.119 287.119 0.012 55.354-15.656 106.942-42.743 150.752zM737.548 231.954c-20.098-28.933-49.621-51.542-88.198-67.8-38.656-16.301-84.344-24.412-137.105-24.412-63.237 0-115.593 11.066-156.92 33.411-29.295 16.001-53.121 37.465-71.438 64.232-18.355 26.788-27.662 53.021-27.662 78.599 0 15.089 5.754 28.211 16.955 38.91 11.318 10.777 25.895 16.179 43.1 16.179 14.094 0 26.2-4.245 36.056-12.656 9.782-8.409 17.989-20.634 24.7-36.765 8.044-18.689 16.782-34.311 26.078-46.776 9.24-12.311 22.243-22.588 39.084-30.633 16.655-8.066 38.822-12.099 66.56-12.099 37.96 0 68.638 8.211 92.117 24.409 23.598 16.346 34.932 36.234 34.932 60.265 0 19.167-6.111 34.389-18.643 46.257-12.646 12.023-28.978 21.179-49.245 27.566-20.346 6.454-47.662 13.299-81.894 20.51-45.967 10.032-84.411 21.71-115.543 35.12-31.173 13.461-55.999 31.861-74.4 55.104-18.439 23.471-27.633 52.645-27.633 87.198 0 32.949 9.706 62.415 29.138 88.060 19.422 25.716 47.521 45.4 84.161 59.111 36.511 13.706 79.494 20.562 128.737 20.562 39.379 0 73.443-4.557 102.275-13.622 28.754-9.132 52.723-21.184 71.888-36.306 19.043-15.089 33.056-31.004 41.932-47.705 8.868-16.751 13.334-33.111 13.334-49.076 0-14.844-5.754-28.307-16.967-40.106-11.211-11.815-25.552-17.839-42.301-17.784-15.098 0-26.943 3.483-35.156 10.856-7.999 7.133-16.401 18.489-25.488 34.316-11.487 22.084-25.245 39.289-41.243 51.595-15.577 12.077-41.277 18.365-77.038 18.289-33.087 0-59.561-6.761-79.542-19.984-20.105-13.434-29.716-29.021-29.761-47.283 0.033-11.444 3.323-21.093 9.944-29.345 6.723-8.328 16.077-15.544 28.1-21.626 12.027-6.178 24.262-10.956 36.556-14.394 12.439-3.526 33.078-8.623 61.765-15.372 35.977-7.754 68.61-16.417 97.933-25.859 29.266-9.49 54.242-20.934 74.876-34.568 20.798-13.594 37.053-30.925 48.657-51.859 11.687-20.967 17.508-46.576 17.508-76.711 0.045-36.287-10.063-68.922-30.209-97.809z" />
<glyph unicode="&#xe91c;" glyph-name="instagram" d="M921.6 960h-819.2c-56.32 0-102.4-46.080-102.4-102.4v-819.2c0-56.32 46.080-102.4 102.4-102.4h819.2c56.32 0 102.4 46.080 102.4 102.4v819.2c0 56.32-46.080 102.4-102.4 102.4zM512 652.8c112.64 0 204.8-92.16 204.8-204.8s-92.16-204.8-204.8-204.8c-112.64 0-204.8 92.16-204.8 204.8s92.16 204.8 204.8 204.8zM128 38.4c-15.36 0-25.6 10.24-25.6 25.6v435.2h107.52c-5.12-15.36-5.12-35.84-5.12-51.2 0-168.96 138.24-307.2 307.2-307.2s307.2 138.24 307.2 307.2c0 15.36 0 35.84-5.12 51.2h107.52v-435.2c0-15.36-10.24-25.6-25.6-25.6h-768zM921.6 729.6c0-15.36-10.24-25.6-25.6-25.6h-102.4c-15.36 0-25.6 10.24-25.6 25.6v102.4c0 15.36 10.24 25.6 25.6 25.6h102.4c15.36 0 25.6-10.24 25.6-25.6v-102.4z" />
<glyph unicode="&#xe91d;" glyph-name="pinterest" d="M810.035 855.067c-70.486 67.666-168.031 104.933-274.665 104.933-162.889 0-263.073-66.771-318.432-122.781-68.227-69.026-107.351-160.679-107.351-251.464 0-113.986 47.678-201.474 127.52-234.022 5.36-2.196 10.754-3.303 16.041-3.303 16.844 0 30.19 11.021 34.814 28.7 2.695 10.143 8.94 35.164 11.655 46.026 5.813 21.451 1.116 31.769-11.559 46.707-23.092 27.323-33.846 59.633-33.846 101.683 0 124.901 93.004 257.646 265.378 257.646 136.771 0 221.733-77.735 221.733-202.868 0-78.964-17.009-152.092-47.902-205.923-21.468-37.403-59.217-81.989-117.17-81.989-25.061 0-47.572 10.294-61.777 28.241-13.419 16.966-17.841 38.883-12.445 61.724 6.097 25.807 14.41 52.727 22.455 78.753 14.674 47.532 28.545 92.426 28.545 128.244 0 61.265-37.664 102.43-93.714 102.43-71.232 0-127.038-72.349-127.038-164.709 0-45.296 12.038-79.175 17.488-92.185-8.973-38.021-62.305-264.060-72.421-306.685-5.849-24.882-41.086-221.409 17.237-237.081 65.529-17.607 124.102 173.798 130.063 195.427 4.832 17.59 21.738 84.103 32.099 124.99 31.633-30.471 82.567-51.070 132.128-51.070 93.43 0 177.454 42.043 236.595 118.378 57.358 74.040 88.948 177.236 88.948 290.564 0 88.598-38.047 175.941-104.378 239.63z" />
<glyph unicode="&#xe91e;" glyph-name="linkedin" d="M921.6 960h-819.2c-56.32 0-102.4-46.080-102.4-102.4v-819.2c0-56.32 46.080-102.4 102.4-102.4h819.2c56.32 0 102.4 46.080 102.4 102.4v819.2c0 56.32-46.080 102.4-102.4 102.4zM307.2 89.6h-153.6v460.8h153.6v-460.8zM230.4 637.44c-51.2 0-92.16 40.96-92.16 92.16s40.96 92.16 92.16 92.16 92.16-40.96 92.16-92.16-40.96-92.16-92.16-92.16zM870.4 89.6h-153.6v271.36c0 40.958-35.84 76.8-76.8 76.8s-76.8-35.842-76.8-76.8v-271.36h-153.6v460.8h153.6v-61.44c25.6 40.96 81.92 71.68 128 71.68 97.28 0 179.2-81.92 179.2-179.2v-291.84z" />
<glyph unicode="&#xe91f;" glyph-name="vimeo" d="M1019.645 725.23c7.639 42.875 7.468 86.962-19.012 120.303-36.946 46.749-115.586 48.469-169.459 40.219-43.827-6.7-192.065-72.103-242.508-228.68 89.368 6.793 136.206-6.441 127.608-104.834-3.601-41.168-24.399-86.269-47.606-129.506-26.819-49.845-77.084-147.719-142.999-77.169-59.372 63.495-54.914 184.932-68.489 265.801-7.561 45.37-15.555 101.912-30.42 148.579-12.81 40.131-42.186 88.515-78.111 99.001-38.584 11.339-86.289-6.359-114.303-22.863-89.204-52.419-157.188-127.007-234.347-188.54v0c12.561-26.911 19.412-44.346 41.926-47.613 53.115-7.823 103.735 49.5 139.046-10.141 21.484-36.437 28.194-76.394 41.94-115.682 18.388-52.32 32.567-109.295 47.606-169.459 25.436-101.912 56.723-254.192 144.808-291.493 44.94-19.084 112.494 6.448 146.695 26.73 92.638 54.822 164.827 134.308 226.615 215.177 141.275 191.39 219.222 408.205 231.008 470.168z" />
<glyph unicode="&#xe920;" glyph-name="youtube" d="M1006.305 690.055c-12.536 54.458-57.080 94.636-110.703 100.629-126.981 14.175-255.506 14.249-383.438 14.175-127.954 0.074-256.499 0-383.481-14.175-53.592-5.993-98.103-46.171-110.64-100.629-17.843-77.554-18.044-162.212-18.044-242.060s0-164.495 17.843-242.039c12.515-54.448 57.037-94.626 110.661-100.629 126.971-14.185 255.506-14.259 383.46-14.185 127.975-0.074 256.478 0 383.438 14.185 53.592 5.993 98.145 46.171 110.682 100.629 17.853 77.554 17.917 162.202 17.917 242.039 0 79.848 0.148 164.506-17.695 242.060zM379.855 289.059c0 113.272 0 225.359 0 338.641 108.526-56.625 216.332-112.87 325.545-169.844-108.874-56.467-216.734-112.373-325.545-168.797z" />
<glyph unicode="&#xe921;" glyph-name="google-plus" horiz-adv-x="1088" d="M676.884 537.541h-347.788v-161.178h174.914c-23.514-66.854-80.5-107.452-153.318-107.452-97.352 0-182.776 83.722-182.776 179.158 0 95.364 85.424 179.016 182.776 179.016 46.544 0 85.89-14.864 113.792-42.962l12.662-12.768 119.936 119.936-13.038 12.662c-56.772 55.16-137.45 84.314-233.35 84.314-192.86-0.002-343.958-149.432-343.958-340.196 0-190.836 151.096-340.338 343.956-340.338 177.78 0 304.090 104.3 329.646 272.196 3.33 21.778 5.032 44.7 5.050 68.142 0 25.734-2.204 53.654-5.892 74.662l-2.614 14.81zM973.902 537.627v107.364h-125.45v-107.452h-107.452v-125.362h107.452v-107.452h125.45v107.452h107.362v125.45z" />
<glyph unicode="&#xe922;" glyph-name="twitter" d="M1024 765.477c-37.689-16.7-78.129-28.026-120.618-33.083 43.384 25.98 76.594 67.187 92.334 116.139-40.696-24.059-85.616-41.529-133.48-50.999-38.328 40.888-92.846 66.356-153.316 66.356-116.010 0-210.072-94.062-210.072-210.009 0-16.444 1.856-32.505 5.44-47.864-174.559 8.768-329.345 92.399-432.941 219.481-18.109-30.971-28.411-67.059-28.411-105.581 0-72.883 37.113-137.191 93.423-174.815-34.426 1.151-66.804 10.621-95.15 26.363v-2.624c0-101.741 72.435-186.652 168.48-205.978-17.597-4.735-36.153-7.359-55.35-7.359-13.565 0-26.683 1.344-39.544 3.904 26.746-83.505 104.301-144.228 196.188-145.893-71.859-56.31-162.466-89.776-260.879-89.776-16.956 0-33.658 1.024-50.102 2.88 92.975-59.702 203.354-94.511 321.988-94.511 386.423 0 597.648 320.069 597.648 597.648l-0.704 27.195c41.271 29.437 76.976 66.421 105.067 108.526z" />
<glyph unicode="&#xe923;" glyph-name="facebook" d="M767.965 959.787l-132.79 0.213c-149.185 0-245.595-98.913-245.595-252.008v-116.192h-133.514c-11.537 0-20.88-9.353-20.88-20.891v-168.35c0-11.537 9.353-20.88 20.88-20.88h133.514v-424.8c0-11.537 9.343-20.88 20.88-20.88h174.198c11.537 0 20.88 9.353 20.88 20.88v424.8h156.109c11.537 0 20.88 9.343 20.88 20.88l0.064 168.35c0 5.54-2.205 10.845-6.115 14.765s-9.236 6.125-14.776 6.125h-156.163v98.498c0 47.342 11.282 71.375 72.952 71.375l89.453 0.032c11.527 0 20.869 9.353 20.869 20.88v156.322c0 11.516-9.332 20.859-20.848 20.88z" />
<glyph unicode="&#xe924;" glyph-name="black-envelope" d="M80.98 764.037l368.841-292.162c16.725-13.233 39.773-19.115 62.16-18.012 22.35-1.103 45.398 4.742 62.123 18.012l368.841 292.162c29.554 23.269 22.864 42.347-14.63 42.347h-832.595c-37.531 0-44.221-19.078-14.74-42.347zM969.596 686.953l-403.064-306.020c-15.071-11.322-34.811-16.836-54.477-16.578-19.703-0.257-39.443 5.293-54.514 16.578l-403.138 306.020c-29.922 22.68-54.404 10.513-54.404-27.018v-502.093c0-37.531 30.731-68.262 68.262-68.262h887.476c37.531 0 68.262 30.731 68.262 68.262v502.093c0 37.531-24.482 49.698-54.404 27.018z" />
<glyph unicode="&#xe925;" glyph-name="left-arrow1" d="M977.455 494.545h-651.636v186.182c0 18.826-11.338 35.8-28.734 43.002-17.396 7.205-37.419 3.221-50.725-10.091l-232.727-232.727c-18.178-18.178-18.178-47.647 0-65.825l232.727-232.727c8.906-8.906 20.809-13.635 32.923-13.635 5.995 0 12.043 1.161 17.799 3.544 17.392 7.205 28.734 24.179 28.734 43.002v186.182h651.636c25.706 0 46.545 20.84 46.545 46.545s-20.837 46.549-46.542 46.549z" />
<glyph unicode="&#xe926;" glyph-name="right-arrow1" d="M1010.365 480.911l-232.727 232.73c-13.309 13.315-33.336 17.29-50.725 10.091-17.392-7.205-28.734-24.179-28.734-43.002v-186.185h-651.633c-25.706 0-46.545-20.84-46.545-46.545s20.84-46.545 46.545-46.545h651.636v-186.182c0-18.826 11.338-35.8 28.734-43.002 5.756-2.386 11.807-3.547 17.802-3.547 12.111 0 24.017 4.729 32.92 13.638l232.727 232.727c18.181 18.174 18.181 47.644 0 65.821z" />
<glyph unicode="&#xe927;" glyph-name="right-arrow2" d="M874.206 810.206c-199.721 199.725-524.692 199.725-724.413 0-199.721-199.721-199.721-524.692 0-724.413 99.858-99.862 231.036-149.794 362.206-149.794s262.348 49.931 362.206 149.794c199.725 199.721 199.725 524.692 0 724.413zM201.534 137.534c-171.19 171.19-171.19 449.738 0 620.928 85.597 85.593 198.029 128.393 310.466 128.393s224.869-42.796 310.466-128.393c171.19-171.19 171.19-449.738 0-620.928-171.194-171.186-449.738-171.186-620.932 0zM776.096 478.523l-280.512 185.406c-11.233 7.423-25.645 8.074-37.503 1.699-11.863-6.379-19.262-18.758-19.262-32.226v-148.818h-128.487c-20.209 0-36.589-16.379-36.589-36.589s16.379-36.589 36.589-36.589h128.491v-148.818c0-13.469 7.399-25.848 19.262-32.226 5.423-2.915 11.383-4.362 17.327-4.362 7.049 0 14.078 2.033 20.177 6.066l280.512 185.406c10.249 6.777 16.416 18.237 16.416 30.523s-6.171 23.754-16.42 30.527zM512 565.364l177.568-117.364-177.568-117.364v234.728z" />
<glyph unicode="&#xe928;" glyph-name="left-arrow2" d="M874.206 810.206c-199.721 199.725-524.692 199.725-724.413 0-199.721-199.721-199.721-524.692 0-724.413 99.858-99.862 231.036-149.794 362.206-149.794s262.348 49.931 362.206 149.794c199.725 199.721 199.725 524.692 0 724.413zM201.534 137.534c-171.19 171.19-171.19 449.738 0 620.928 85.597 85.593 198.029 128.393 310.466 128.393s224.869-42.796 310.466-128.393c171.19-171.19 171.19-449.738 0-620.928-171.194-171.186-449.738-171.186-620.932 0zM713.668 484.589h-128.491v148.818c0 13.469-7.399 25.848-19.262 32.226-11.859 6.375-26.267 5.724-37.503-1.699l-280.512-185.406c-10.249-6.777-16.416-18.237-16.416-30.523s6.167-23.75 16.416-30.523l280.512-185.406c6.098-4.029 13.127-6.066 20.177-6.066 5.944 0 11.903 1.447 17.327 4.362 11.863 6.379 19.262 18.758 19.262 32.226v148.818h128.491c20.209 0 36.589 16.379 36.589 36.589s-16.379 36.584-36.589 36.584zM334.432 448l177.568 117.364v-234.728l-177.568 117.364z" />
<glyph unicode="&#xe929;" glyph-name="left-arrow3" d="M300.138 571.586c-68.148 0-123.586-55.438-123.586-123.586s55.438-123.586 123.586-123.586 123.586 55.438 123.586 123.586-55.438 123.586-123.586 123.586zM512 377.38c-68.148 0-123.586-55.438-123.586-123.586s55.438-123.586 123.586-123.586 123.586 55.438 123.586 123.586c0 68.148-55.438 123.586-123.586 123.586zM723.862 183.172c-68.148 0-123.586-55.438-123.586-123.586s55.438-123.586 123.586-123.586 123.586 55.438 123.586 123.586c0 68.15-55.438 123.586-123.586 123.586zM512 518.62c68.148 0 123.586 55.438 123.586 123.586s-55.438 123.586-123.586 123.586-123.586-55.438-123.586-123.586c0-68.148 55.438-123.586 123.586-123.586zM723.862 712.828c68.148 0 123.586 55.438 123.586 123.586s-55.438 123.586-123.586 123.586-123.586-55.438-123.586-123.586 55.438-123.586 123.586-123.586z" />
<glyph unicode="&#xe92a;" glyph-name="right-arrow3" d="M723.862 571.586c-68.148 0-123.586-55.438-123.586-123.586s55.438-123.586 123.586-123.586 123.586 55.438 123.586 123.586-55.438 123.586-123.586 123.586zM512 518.62c68.148 0 123.586 55.438 123.586 123.586s-55.438 123.586-123.586 123.586-123.586-55.438-123.586-123.586c0-68.148 55.438-123.586 123.586-123.586zM300.138 712.828c68.148 0 123.586 55.438 123.586 123.586s-55.438 123.586-123.586 123.586-123.586-55.438-123.586-123.586 55.438-123.586 123.586-123.586zM512 377.38c-68.148 0-123.586-55.438-123.586-123.586s55.438-123.586 123.586-123.586 123.586 55.438 123.586 123.586c0 68.148-55.438 123.586-123.586 123.586zM300.138 183.172c-68.148 0-123.586-55.438-123.586-123.586s55.438-123.586 123.586-123.586 123.586 55.438 123.586 123.586c0 68.15-55.438 123.586-123.586 123.586z" />
<glyph unicode="&#xe92b;" glyph-name="left-arrow4" d="M298.666 576h-85.334c-47.060 0-85.332-38.272-85.332-85.334v-85.334c0-47.060 38.272-85.332 85.334-85.332h85.334c47.060 0 85.332 38.272 85.332 85.334v85.332c0 47.062-38.272 85.334-85.334 85.334zM554.666 362.668h-85.334c-47.062 0-85.334-38.272-85.334-85.334v-85.334c0-47.062 38.272-85.334 85.334-85.334h85.334c47.062 0 85.334 38.272 85.334 85.334v85.334c0 47.062-38.272 85.334-85.334 85.334zM810.666 192h-85.334c-47.060 0-85.332-38.272-85.332-85.334v-85.334c0-47.060 38.272-85.332 85.334-85.332h85.334c47.060 0 85.332 38.272 85.332 85.334v85.334c0 47.060-38.272 85.332-85.334 85.332zM810.666 960h-85.334c-47.060 0-85.332-38.272-85.332-85.334v-85.334c0-47.060 38.272-85.332 85.334-85.332h85.334c47.060 0 85.332 38.272 85.332 85.334v85.332c0 47.062-38.272 85.334-85.334 85.334zM554.668 789.334h-85.334c-47.062 0-85.334-38.272-85.334-85.334v-85.334c0-47.060 38.272-85.332 85.334-85.332h85.334c47.062 0 85.334 38.272 85.334 85.334v85.332c0 47.062-38.272 85.334-85.334 85.334z" />
<glyph unicode="&#xe92c;" glyph-name="right-arrow4" d="M810.666 576h-85.334c-47.060 0-85.332-38.272-85.332-85.334v-85.334c0-47.060 38.272-85.332 85.334-85.332h85.334c47.060 0 85.332 38.272 85.332 85.334v85.334c0 47.060-38.272 85.332-85.334 85.332zM554.668 789.334h-85.334c-47.062 0-85.334-38.272-85.334-85.334v-85.334c0-47.062 38.272-85.334 85.334-85.334h85.334c47.062 0 85.334 38.272 85.334 85.334v85.334c0 47.062-38.272 85.334-85.334 85.334zM298.666 960h-85.334c-47.060 0-85.332-38.272-85.332-85.334v-85.334c0-47.060 38.272-85.332 85.334-85.332h85.334c47.060 0 85.332 38.272 85.332 85.334v85.332c0 47.062-38.272 85.334-85.334 85.334zM298.666 192h-85.334c-47.060 0-85.332-38.272-85.332-85.334v-85.334c0-47.060 38.272-85.332 85.334-85.332h85.334c47.060 0 85.332 38.272 85.332 85.334v85.334c0 47.060-38.272 85.332-85.334 85.332zM554.666 362.666h-85.334c-47.062 0-85.334-38.272-85.334-85.334v-85.332c0-47.062 38.272-85.334 85.334-85.334h85.334c47.062 0 85.334 38.272 85.334 85.334v85.334c0 47.060-38.272 85.332-85.334 85.332z" />
<glyph unicode="&#xe92d;" glyph-name="left-arrow5" d="M512 960c-282.752 0-512-229.248-512-512 0-282.784 229.216-512 512-512s512 229.216 512 512c0 282.752-229.216 512-512 512zM512-0.991c-247.040 0-447.999 201.951-447.999 448.991s200.959 447.999 447.999 447.999 447.999-200.959 447.999-447.999-200.959-448.991-447.999-448.991zM627.423 694.335c-12.512 12.608-32.768 12.608-45.248 0l-220.8-223.968c-12.161-12.289-12.193-33.409 0-45.727l220.768-223.968c12.512-12.608 32.768-12.608 45.248 0 12.512 12.64 12.512 33.087 0 45.727l-198.241 201.119 198.272 201.119c12.48 12.611 12.48 33.058 0 45.698z" />
<glyph unicode="&#xe92e;" glyph-name="right-arrow5" d="M512 960c-282.784 0-512-229.216-512-512 0-282.752 229.216-512 512-512 282.752 0 512 229.248 512 512 0 282.784-229.248 512-512 512zM512 0.001c-247.040 0-447.999 200.959-447.999 447.999s200.959 448.991 447.999 448.991 447.999-201.951 447.999-448.991-200.959-447.999-447.999-447.999zM441.855 695.327c-12.512 12.608-32.768 12.608-45.248 0-12.512-12.64-12.512-33.087 0-45.727l198.241-201.119-198.272-201.119c-12.512-12.608-12.512-33.087 0-45.727 12.512-12.608 32.768-12.608 45.248 0l220.8 223.968c12.161 12.321 12.193 33.409 0 45.727l-220.768 223.997z" />
<glyph unicode="&#xe92f;" glyph-name="left-arrow-6" d="M512-63.251c282.768 0 512 228.894 512 511.251s-229.232 511.251-512 511.251-512-228.896-512-511.251 229.232-511.251 512-511.251zM655.004 647.603v-417.74l-391.24 208.878 391.24 208.862z" />
<glyph unicode="&#xe930;" glyph-name="right-arrow-6" d="M512 959.251c-282.768 0-512-228.894-512-511.249s229.232-511.251 512-511.251 512 228.896 512 511.251-229.232 511.249-512 511.249zM368.994 248.399v417.738l391.24-208.878-391.24-208.86z" />
<glyph unicode="&#xe931;" glyph-name="left-arrow7" d="M506.205-47.112l151.23 154.58-250.172 244.705h616.736v223.598h-584.090l217.525 212.76-151.23 154.582-506.205-495.104z" />
<glyph unicode="&#xe932;" glyph-name="right-arrow7" d="M517.795 943.112l-151.23-154.58 250.172-244.705h-616.736v-223.598h584.090l-217.525-212.76 151.23-154.582 506.205 495.104z" />
<glyph unicode="&#xe933;" glyph-name="left-arrow8" d="M1023.995 554.167c0 21.866-17.703 40.104-39.48 40.479v0h-481.328c-17.887 4.048-31.358 20.090-31.358 39.154v125.002c0 22.1-13.749 28.439-30.553 14.101l-428.67-298.817c-16.809-14.353-16.809-37.824 0-52.172l428.662-298.806c16.812-14.348 30.561-8.015 30.561 14.083v125.002c0 22.095 18.080 40.178 40.178 40.178l471.816 0.703c22.103 0.010 40.178 18.090 40.178 40.178l-0.005 210.915z" />
<glyph unicode="&#xe934;" glyph-name="right-arrow8" d="M1011.392 474.089l-428.662 298.806c-16.812 14.348-30.561 8.017-30.561-14.083v-125.005c0-22.093-18.085-40.175-40.175-40.175l-472.022-0.716c-22.009-0.122-39.967-18.146-39.972-40.165l0.005-210.912c0-22.095 18.075-40.178 40.163-40.178l471.966 0.701c22.029-0.071 40.040-18.106 40.040-40.163v-125.002c0-22.1 13.749-28.439 30.553-14.101l428.67 298.817c16.804 14.358 16.804 37.827-0.005 52.177z" />
<glyph unicode="&#xe935;" glyph-name="right-arrow9" d="M997.33 471.604l-478.157 478.129c-6.825 6.835-14.695 10.267-23.59 10.267-8.884 0-16.743-3.432-23.582-10.267l-51.309-51.301c-6.839-6.839-10.253-14.695-10.253-23.6s3.414-16.761 10.253-23.6l403.248-403.238-403.245-403.248c-6.839-6.839-10.253-14.709-10.253-23.59 0-8.902 3.414-16.772 10.253-23.611l51.309-51.287c6.835-6.846 14.695-10.257 23.582-10.257 8.905 0 16.765 3.418 23.586 10.257l478.157 478.132c6.835 6.835 10.246 14.709 10.246 23.6s-3.411 16.761-10.246 23.615zM613.575 447.989c0 8.891-3.403 16.765-10.267 23.615l-478.125 478.129c-6.835 6.835-14.706 10.267-23.597 10.267s-16.765-3.432-23.6-10.267l-51.298-51.305c-6.85-6.839-10.264-14.695-10.264-23.6s3.414-16.761 10.264-23.6l403.238-403.238-403.238-403.245c-6.85-6.839-10.264-14.709-10.264-23.59 0-8.902 3.414-16.772 10.264-23.611l51.294-51.287c6.839-6.846 14.709-10.257 23.6-10.257s16.761 3.418 23.6 10.257l478.125 478.132c6.864 6.835 10.267 14.709 10.267 23.6z" />
<glyph unicode="&#xe936;" glyph-name="left-arrow9" d="M594.082 447.987l403.28 403.237c6.836 6.839 10.232 14.71 10.232 23.601 0 8.895-3.418 16.765-10.232 23.601l-51.313 51.306c-6.836 6.836-14.71 10.268-23.587 10.268-8.906 0-16.765-3.432-23.615-10.268l-478.158-478.14c-6.839-6.839-10.253-14.71-10.253-23.601 0-8.895 3.414-16.762 10.253-23.601l478.158-478.14c6.839-6.85 14.685-10.246 23.59-10.246s16.747 3.403 23.587 10.246l51.31 51.274c6.836 6.839 10.246 14.713 10.246 23.612 0 8.884-3.407 16.751-10.246 23.59l-403.251 403.262zM200.064 447.987l403.24 403.237c6.839 6.839 10.246 14.71 10.246 23.601 0 8.895-3.403 16.765-10.246 23.601l-51.285 51.306c-6.839 6.836-14.71 10.268-23.59 10.268-8.906 0-16.776-3.432-23.612-10.268l-478.162-478.14c-6.839-6.839-10.253-14.71-10.253-23.601 0-8.895 3.414-16.762 10.253-23.601l478.158-478.14c6.836-6.85 14.699-10.246 23.612-10.246 8.88 0 16.751 3.403 23.587 10.246l51.288 51.274c6.839 6.839 10.246 14.713 10.246 23.612 0 8.884-3.403 16.751-10.246 23.59l-403.237 403.262z" />
<glyph unicode="&#xe937;" glyph-name="left-arrow10" d="M827.733 55.467l-392.533 392.533 392.533 392.533-119.467 119.467-512-512 512-512z" />
<glyph unicode="&#xe938;" glyph-name="right-arrow10" d="M315.733 960l-119.467-119.467 392.533-392.533-392.533-392.533 119.467-119.467 512 512z" />
<glyph unicode="&#xe939;" glyph-name="left-arrow11" d="M1024 512h-780.8l358.4 358.4-89.6 89.6-512-512 512-512 89.6 89.6-358.4 358.4h780.8v128z" />
<glyph unicode="&#xe93a;" glyph-name="right-arrow11" d="M512 960l-89.6-89.6 358.4-358.4h-780.8v-128h780.8l-358.4-358.4 89.6-89.6 512 512z" />
<glyph unicode="&#xe93b;" glyph-name="next-track" d="M1024 960v-1024h-170.668v469.332l-426.665-426.665v426.665l-426.668-426.665v938.665l426.668-426.668v426.668l426.668-426.668v469.335h170.665z" />
<glyph unicode="&#xe93c;" glyph-name="previous" d="M0-64v1024h170.668v-469.332l426.665 426.665v-426.668l426.668 426.668v-938.668l-426.668 426.668v-426.668l-426.665 426.668v-469.332h-170.668z" />
<glyph unicode="&#xe93d;" glyph-name="pause-button" d="M73.143-64h292.571v1024h-292.571v-1024zM658.286 960v-1024h292.571v1024h-292.571z" />
<glyph unicode="&#xe93e;" glyph-name="left-arrow12" d="M311.568 448.027l462.455 462.455c11.374 11.374 11.374 29.614 0 40.988s-29.614 11.374-40.988 0l-483.056-483.056c-11.374-11.374-11.374-29.614 0-40.988l483.056-482.842c5.58-5.58 13.090-8.584 20.387-8.584s14.807 2.79 20.387 8.584c11.374 11.374 11.374 29.614 0 40.988l-462.24 462.455z" />
<glyph unicode="&#xe93f;" glyph-name="right-arrow13" d="M774.115 468.413l-483.056 483.056c-11.374 11.374-29.614 11.374-40.988 0s-11.374-29.614 0-40.988l462.455-462.455-462.455-462.455c-11.374-11.374-11.374-29.614 0-40.988 5.58-5.58 13.090-8.584 20.387-8.584s14.807 2.79 20.387 8.584l483.056 483.056c11.374 11.159 11.374 29.614 0.215 40.773z" />
<glyph unicode="&#xe940;" glyph-name="ticket" d="M575.996 640.002l127.996-127.998-255.992-255.994-127.998 127.998 255.994 255.994zM1001.521 662.498l-73.514 73.514-32.008-32.006c-16.374-16.379-39.008-26.509-63.999-26.509-49.987 0-90.514 40.521-90.514 90.508 0 25.002 10.139 47.639 26.532 64.018l31.989 31.987-73.518 73.516c-29.967 29.967-79.006 29.967-108.977 0l-595.033-595.037c-29.965-29.967-29.965-79.011 0-108.977l73.52-73.516 31.962 31.962c16.381 16.406 39.029 26.55 64.043 26.55 49.989 0 90.51-40.521 90.51-90.51 0-25.004-10.139-47.639-26.534-64.022l-31.983-31.985 73.516-73.516c29.965-29.967 79.007-29.967 108.977 0l595.035 595.035c29.963 29.981 29.963 79.019-0.004 108.988zM448.002 128.008l-255.998 256 383.997 383.997 255.998-255.998-383.997-383.999z" />
<glyph unicode="&#xe941;" glyph-name="calendar" d="M916.765 836.108h-77.84v53.129c0 39.081-31.682 70.763-70.763 70.763h-2.831c-39.081 0-70.763-31.682-70.763-70.763v-53.129h-365.138v53.129c0 39.081-31.682 70.763-70.763 70.763h-2.831c-39.081 0-70.763-31.682-70.763-70.763v-53.129h-77.84c-39.081 0-70.763-31.682-70.763-70.763v-758.581c0-39.087 31.682-70.763 70.763-70.763h809.531c39.081 0 70.763 31.676 70.763 70.763v758.581c0 39.081-31.685 70.763-70.763 70.763zM868.646 47.806h-713.293v574.597h713.293v-574.597zM252.302 362.379h123.122c6.253 0 11.322 5.069 11.322 11.322v123.122c0 6.253-5.069 11.322-11.322 11.322h-123.122c-6.253 0-11.322-5.069-11.322-11.322v-123.122c0-6.253 5.069-11.322 11.322-11.322zM450.439 362.379h123.122c6.253 0 11.322 5.069 11.322 11.322v123.122c0 6.253-5.069 11.322-11.322 11.322h-123.122c-6.253 0-11.322-5.069-11.322-11.322v-123.122c0-6.253 5.069-11.322 11.322-11.322zM648.576 362.379h123.122c6.253 0 11.322 5.069 11.322 11.322v123.122c0 6.253-5.069 11.322-11.322 11.322h-123.122c-6.253 0-11.322-5.069-11.322-11.322v-123.122c0-6.253 5.069-11.322 11.322-11.322zM252.302 164.242h123.122c6.253 0 11.322 5.069 11.322 11.322v123.122c0 6.253-5.069 11.322-11.322 11.322h-123.122c-6.253 0-11.322-5.069-11.322-11.322v-123.122c0-6.253 5.069-11.322 11.322-11.322zM450.439 164.242h123.122c6.253 0 11.322 5.069 11.322 11.322v123.122c0 6.253-5.069 11.322-11.322 11.322h-123.122c-6.253 0-11.322-5.069-11.322-11.322v-123.122c0-6.253 5.069-11.322 11.322-11.322zM648.576 164.242h123.122c6.253 0 11.322 5.069 11.322 11.322v123.122c0 6.253-5.069 11.322-11.322 11.322h-123.122c-6.253 0-11.322-5.069-11.322-11.322v-123.122c0-6.253 5.069-11.322 11.322-11.322z" />
<glyph unicode="&#xe942;" glyph-name="heart-outline" d="M940.8 812.688c-53.729 53.732-125.156 83.3-201.144 83.3-75.999 0-147.433-29.568-201.182-83.3l-26.477-26.482-26.477 26.482c-53.732 53.732-125.183 83.3-201.165 83.3-75.98 0-147.436-29.568-201.163-83.3-110.926-110.936-110.926-291.435 0-402.328l397.478-397.48c6.499-6.523 14.59-10.517 23.042-12.055 2.835-0.559 5.686-0.819 8.542-0.819 11.244 0 22.507 4.289 31.071 12.874l397.478 397.48c110.931 110.893 110.931 291.392-0.003 402.328zM878.658 472.499l-366.658-366.664-366.666 366.664c-76.658 76.647-76.658 201.357 0 278.045 37.132 37.127 86.519 57.548 139.021 57.548 52.508 0 101.881-20.421 139-57.548l57.572-57.591c16.503-16.478 45.66-16.478 62.16 0l57.55 57.591c37.121 37.127 86.497 57.548 139.021 57.548 52.508 0 101.878-20.421 139-57.548 76.666-76.688 76.666-201.395 0-278.045z" />
<glyph unicode="&#xe943;" glyph-name="clock" d="M512 960c-281.6 0-512-230.4-512-512s230.4-512 512-512 512 230.4 512 512-230.4 512-512 512zM512 38.4c-225.28 0-409.6 184.32-409.6 409.6s184.32 409.6 409.6 409.6 409.6-184.32 409.6-409.6-184.32-409.6-409.6-409.6zM537.6 704h-76.8v-307.2l266.24-163.84 40.96 66.56-230.4 138.24z" />
<glyph unicode="&#xe944;" glyph-name="asside" d="M893.346 706.663l-208.002 208.009c-22.232 22.223-51.574 36.674-88.013 43.334v-339.34h339.345c-6.667 36.455-21.121 65.783-43.329 87.997zM576.003 533.338c-17.786 0-32.899 6.218-45.34 18.664-12.446 12.439-18.662 27.551-18.662 45.333v362.665h-362.667c-17.774 0-32.887-6.218-45.33-18.664-12.446-12.439-18.666-27.551-18.666-45.333v-896.006c0-17.786 6.221-32.899 18.666-45.34 12.446-12.434 27.556-18.659 45.333-18.659h725.346c17.772 0 32.875 6.225 45.316 18.659 12.441 12.451 18.666 27.554 18.666 45.34v533.341h-362.663z" />
<glyph unicode="&#xe945;" glyph-name="image-gallery" d="M157.53 273.071v440.487h-67.481c-49.881 0-90.049-40.792-90.049-90.628v-595.544c0-49.903 40.168-90.249 90.049-90.249h595.566c49.859 0 90.806 40.346 90.806 90.249v65.053h-438.259c-99.049-0.022-180.632 81.561-180.632 180.632zM933.751 958.886h-595.588c-49.859 0-90.584-40.391-90.584-90.249v-595.566c0-49.926 40.747-90.606 90.584-90.606h595.588c49.837 0 90.249 40.68 90.249 90.606v595.544c0 49.903-40.413 90.272-90.249 90.272zM921.498 323.086c-4.968-9.179-14.525-14.615-24.952-14.615h-510.329c-8.978 0-17.422 4.010-22.768 11.184-5.347 7.218-6.973 16.397-4.389 25.019l73.006 241.475c4.812 15.884 18.224 27.625 34.62 30.321 16.397 2.673 32.883-4.233 42.507-17.756l102.079-143.405c13.746-19.315 40.368-24.105 59.906-10.783l93.992 63.827c9.669 6.572 21.543 8.956 32.972 6.661 11.473-2.272 21.521-9.090 27.915-18.892l94.215-144.185c5.703-8.755 6.171-19.716 1.225-28.85z" />
<glyph unicode="&#xe946;" glyph-name="photo" d="M512 550.4c-84.838 0-153.6-68.792-153.6-153.6 0-84.838 68.762-153.6 153.6-153.6 84.818 0 153.6 68.762 153.6 153.6 0 84.808-68.782 153.6-153.6 153.6zM921.6 704h-122.88c-16.896 0-35.103 13.107-40.438 29.143l-31.764 95.324c-5.356 16.026-23.542 29.133-40.438 29.133h-348.16c-16.896 0-35.103-13.107-40.438-29.143l-31.764-95.324c-5.356-16.026-23.542-29.133-40.438-29.133h-122.88c-56.32 0-102.4-46.080-102.4-102.4v-460.8c0-56.32 46.080-102.4 102.4-102.4h819.2c56.32 0 102.4 46.080 102.4 102.4v460.8c0 56.32-46.080 102.4-102.4 102.4zM512 140.8c-141.384 0-256 114.616-256 256 0 141.373 114.616 256 256 256 141.363 0 256-114.627 256-256 0-141.384-114.637-256-256-256zM885.76 529.992c-19.784 0-35.84 16.036-35.84 35.84 0 19.784 16.056 35.84 35.84 35.84 19.804 0 35.84-16.056 35.84-35.84 0-19.804-16.046-35.84-35.84-35.84z" />
<glyph unicode="&#xe947;" glyph-name="link2" d="M967.392 539.080l-273.244-273.234c-75.472-75.483-197.751-75.483-273.229 0l-91.074 91.085 91.074 91.064 91.081-91.064c25.157-25.109 65.976-25.16 91.085 0l273.225 273.223c25.096 25.128 25.096 65.981 0 91.115l-91.074 91.074c-25.109 25.092-65.976 25.092-91.087 0l-97.546-97.563c-45.222 26.614-96.618 38.028-147.502 34.6l153.984 154.037c75.472 75.443 197.81 75.443 273.225 0l91.085-91.074c75.472-75.447 75.472-197.821-0.002-273.263zM427.339 181.175l-97.493-97.486c-25.157-25.16-65.976-25.098-91.074 0l-91.081 91.074c-25.157 25.106-25.157 65.928 0 91.085l273.229 273.234c25.102 25.092 65.987 25.092 91.081 0l91.085-91.085 91.064 91.085-91.064 91.074c-75.483 75.443-197.761 75.443-273.238 0l-273.236-273.225c-75.479-75.494-75.479-197.832 0-273.242l91.079-91.076c75.419-75.483 197.755-75.483 273.229 0l153.973 153.98c-50.88-3.392-102.142 8.037-147.555 34.583z" />
<glyph unicode="&#xe948;" glyph-name="audio" d="M425.408 832.946l-194.498-145.651h-177.624c-29.308 0-53.287-23.979-53.287-53.287v-371.233c0-29.317 23.979-53.287 53.287-53.287h177.624l194.498-145.651c35.525-26.644 85.259-1.776 85.259 42.63v683.851c0 44.406-50.623 69.273-85.259 42.63zM686.515 745.91c-23.979 23.979-63.944 23.979-87.915 0-23.979-23.979-23.979-63.944 0-87.924 115.455-115.455 115.455-302.857 0-418.312-23.979-23.979-23.979-63.944 0-87.915 12.425-12.434 28.411-17.762 43.509-17.762s31.981 6.208 43.518 18.65c165.19 162.526 165.19 428.961 0.888 593.263zM755.788 885.345c-23.97-23.979-23.97-63.944 0-87.924 93.252-93.252 144.772-216.701 144.772-349.030s-51.52-255.778-144.772-349.030c-23.97-23.979-23.97-63.944 0-87.924 12.434-12.425 28.42-18.65 43.518-18.65 15.986 0 31.972 6.217 43.518 17.762 116.343 116.343 181.167 271.764 181.167 436.954s-63.944 319.722-181.167 436.954c-23.091 24.867-62.168 24.867-87.036 0.888z" />
<glyph unicode="&#xe949;" glyph-name="info" d="M512 960c-282.752 0-512-229.248-512-512s229.248-512 512-512 512 229.248 512 512-229.248 512-512 512zM575.999 192c0-35.328-28.673-63.999-63.999-63.999s-63.999 28.673-63.999 63.999v320.001c0 35.328 28.673 63.999 63.999 63.999s63.999-28.673 63.999-63.999v-320.001zM512 638.976c-35.328 0-63.999 28.673-63.999 63.999s28.673 63.999 63.999 63.999 63.999-28.673 63.999-63.999-28.671-63.999-63.999-63.999z" />
<glyph unicode="&#xe94a;" glyph-name="status" d="M910.222 960h-796.444c-62.578 0-113.778-51.2-113.778-113.778v-796.444c0-62.578 51.2-113.778 113.778-113.778h796.444c62.578 0 113.778 51.2 113.778 113.778v796.444c0 62.578-51.2 113.778-113.778 113.778zM796.444 618.667h-568.889v113.778h568.889v-113.778zM796.444 391.111h-568.889v113.778h568.889v-113.778zM625.778 163.556h-398.222v113.778h398.222v-113.778z" />
<glyph unicode="&#xe94b;" glyph-name="play-button2" d="M512 960c-282.317 0-512-229.683-512-512s229.683-512 512-512 512 229.683 512 512-229.683 512-512 512zM777.609 433.903l-375.467-256c-2.884-1.963-6.246-2.97-9.609-2.97-2.731 0-5.478 0.649-7.97 1.98-5.598 2.953-9.097 8.755-9.097 15.087v512c0 6.332 3.499 12.134 9.097 15.087 5.598 2.97 12.356 2.56 17.596-0.99l375.467-256c4.642-3.174 7.441-8.448 7.441-14.097s-2.799-10.923-7.458-14.097z" />
<glyph unicode="&#xe94c;" glyph-name="eye" d="M512 782.559c-225.859 0-420.519-133.143-509.94-325.276-2.746-5.822-2.746-12.633 0-18.565 89.421-192.133 284.082-325.276 509.94-325.276s420.519 133.143 509.94 325.276c2.746 5.822 2.746 12.633 0 18.565-89.421 192.134-284.081 325.276-509.94 325.276zM512 217.142c-127.54 0-230.802 103.373-230.802 230.803 0 127.54 103.372 230.802 230.802 230.802 127.54 0 230.802-103.372 230.802-230.802s-103.372-230.803-230.802-230.803zM659.753 448.055c0-81.602-66.151-147.753-147.753-147.753s-147.753 66.151-147.753 147.753c0 81.602 66.151 147.753 147.753 147.753s147.753-66.151 147.753-147.753z" />
<glyph unicode="&#xe94d;" glyph-name="user1" d="M832.004 255.993h-64.003c-70.689 0-128.004 57.315-128.004 128.006v41.12c28.318 33.657 48.628 73.468 61.253 115.535 1.311 7.091 8.136 10.594 12.688 15.469 24.504 24.5 29.322 65.845 10.943 95.284-2.503 4.468-7.011 8.343-6.755 13.878 0 37.532 0.188 75.123-0.049 112.625-1.005 45.279-13.946 92.38-45.691 125.908-25.629 27.089-60.82 43.219-97.126 50.123-45.879 8.752-93.876 8.309-139.316-3.25-39.378-9.938-76.374-33.001-99.249-67.188-20.256-29.721-29.13-65.809-30.629-101.376-0.561-38.186-0.129-76.467-0.245-114.746 0.872-7.663-5.629-12.848-8.564-19.192-17.312-31.405-9.691-74.192 18.126-97.033 7.057-4.871 8.378-13.749 10.934-21.404 12.131-37.813 32.252-72.782 57.689-103.253v-42.5c0-70.691-57.313-128.006-127.999-128.006h-64.005c0 0-115.997-31.99-192.002-191.996v-64.003c0-35.369 28.626-63.99 64.003-63.99h896.007c35.369 0 63.992 28.622 63.992 63.99v64.003c-76.001 159.994-191.998 191.996-191.998 191.996z" />
<glyph unicode="&#xe94e;" glyph-name="play-arrow" d="M109.714 960v-1024l804.571 512z" />
<glyph unicode="&#xe94f;" glyph-name="chat" d="M0 823.467v-563.2c0-55.501 46.899-102.4 102.4-102.4h136.533v-170.667c0-7.049 4.335-13.38 10.906-15.923 2.014-0.785 4.096-1.143 6.161-1.143 4.71 0 9.318 1.946 12.629 5.581l165.581 182.153h487.39c55.501 0 102.4 46.899 102.4 102.4v563.2c0 55.501-46.899 102.4-102.4 102.4h-819.2c-55.501 0-102.4-46.899-102.4-102.4zM682.667 550.4c0 37.649 30.618 68.267 68.267 68.267s68.267-30.618 68.267-68.267-30.618-68.267-68.267-68.267-68.267 30.618-68.267 68.267zM443.733 550.4c0 37.649 30.618 68.267 68.267 68.267s68.267-30.618 68.267-68.267-30.618-68.267-68.267-68.267-68.267 30.618-68.267 68.267zM204.8 550.4c0 37.649 30.618 68.267 68.267 68.267s68.267-30.618 68.267-68.267-30.618-68.267-68.267-68.267-68.267 30.618-68.267 68.267z" />
<glyph unicode="&#xe950;" glyph-name="magnifier1" d="M1012.465 61.548l-211.862 211.862c-7.847 7.847-7.847 15.693-3.923 23.54 43.157 66.697 66.697 145.165 66.697 231.479 0 239.326-192.245 431.571-431.571 431.571s-431.571-192.245-431.571-431.571 192.245-431.571 431.571-431.571c86.314 0 164.782 23.54 231.479 66.697 7.847 3.923 19.617 3.923 23.54-3.923l211.862-211.862c15.693-15.693 39.234-15.693 54.927 0l54.927 54.927c19.617 19.617 19.617 43.157 3.923 58.851zM435.73 253.793c-153.011 0-274.636 121.625-274.636 274.636s121.625 274.636 274.636 274.636 274.636-121.625 274.636-274.636-121.625-274.636-274.636-274.636z" />
<glyph unicode="&#xe951;" glyph-name="magnifier2" d="M995.866 99.865l-234.921 234.94c-35.003-54.438-81.327-100.738-135.765-135.744l234.94-234.94c37.506-37.498 98.318-37.498 135.744 0 37.508 37.437 37.508 98.248 0.002 135.744zM767.998 576c0 212.059-171.933 384-383.996 384-212.059 0-384-171.942-384-384s171.942-383.992 384-383.992c212.063 0 383.996 171.933 383.996 383.992zM384.002 288.011c-158.813 0-287.998 129.174-287.998 287.987s129.185 287.998 287.998 287.998c158.809 0 288.004-129.185 288.004-287.998s-129.195-287.987-288.004-287.987zM160.005 576h63.992c0 88.222 71.784 159.999 160.003 159.999v63.998c-123.495 0-223.995-100.5-223.995-223.997z" />
<glyph unicode="&#xe952;" glyph-name="magnifier4" d="M1015.031-11.778l-248.848 248.848c66.753 76.743 107.168 176.873 107.168 286.311 0 240.901-195.945 436.619-436.619 436.619-240.901 0-436.619-195.945-436.619-436.619s195.945-436.619 436.619-436.619c109.439 0 209.568 40.415 286.311 107.168l248.848-248.848c5.903-5.903 13.85-9.082 21.57-9.082s15.667 2.952 21.57 9.082c11.807 11.807 11.807 31.333 0 43.14zM61.19 523.381c0 207.071 168.472 375.315 375.315 375.315 207.071 0 375.315-168.472 375.315-375.315s-168.245-375.542-375.315-375.542c-206.843 0-375.315 168.472-375.315 375.542z" />
<glyph unicode="&#xe953;" glyph-name="magnifier5" d="M428.434 792.295c-29.558 0-53.534-23.994-53.534-53.534 0-29.594 23.976-53.534 53.534-53.534 65.415 0 123.833-36.536 152.515-95.42 9.286-19.002 28.324-30.059 48.148-30.059 7.891 0 15.888 1.736 23.421 5.421 26.588 12.936 37.646 44.981 24.674 71.587-46.753 95.939-142.101 155.539-248.758 155.539zM1004.39 56.988l-178.405 178.423c52.818 74.289 84.184 164.843 84.184 262.75 0 250.941-204.152 455.093-455.093 455.093s-455.075-204.152-455.075-455.093c0-250.923 204.134-455.075 455.075-455.075 104.832 0 201.2 35.964 278.209 95.742l176.455-176.455c13.061-13.061 30.22-19.61 47.325-19.61 17.141 0 34.264 6.531 47.325 19.61 26.141 26.105 26.141 68.474 0 94.615zM107.104 498.143c0 191.896 156.129 348.007 348.007 348.007s348.007-156.111 348.007-348.007c0-79.836-27.286-153.266-72.697-212.061-15.012-19.413-31.866-37.324-50.582-53.194-60.691-51.494-139.078-82.752-224.729-82.752-191.896 0.018-348.007 156.129-348.007 348.007z" />
<glyph unicode="&#xe954;" glyph-name="magnifier6" d="M1003.189 56.833l-216.395 216.43c52.594 73.158 81.511 160.58 81.511 252.602 0 115.913-45.127 224.925-127.204 306.931-81.9 81.971-190.982 127.204-306.966 127.204-115.949 0-224.995-45.127-306.966-127.204-81.971-81.936-127.133-190.982-127.133-306.931s45.127-224.96 127.133-307.002c81.971-81.971 190.982-127.204 306.966-127.204 91.987 0 179.338 28.775 252.567 81.511l216.395-216.43c13.874-13.839 31.925-20.74 50.046-20.74 18.157 0 36.243 6.902 50.046 20.74 27.642 27.678 27.642 72.45 0 100.092zM227.296 318.991c-55.284 55.284-85.687 128.796-85.687 206.909s30.403 151.554 85.687 206.839c55.249 55.284 128.69 85.723 206.839 85.723s151.625-30.438 206.874-85.723c55.284-55.284 85.723-128.761 85.723-206.874s-30.403-151.59-85.723-206.909c-55.284-55.284-128.69-85.652-206.874-85.652s-151.66 30.438-206.839 85.687z" />
<glyph unicode="&#xe955;" glyph-name="magnifier7" d="M998.935 82.081l-222.458 222.454c-1.182 1.182-2.569 2.009-3.805 3.109 43.772 66.399 69.32 145.881 69.32 231.356 0 232.513-188.487 421-420.996 421s-420.996-188.487-420.996-420.996c0-232.505 188.483-420.996 420.992-420.996 85.479 0 164.956 25.548 231.356 69.32 1.1-1.231 1.923-2.618 3.105-3.8l222.462-222.462c33.418-33.414 87.598-33.414 121.020 0 33.414 33.418 33.414 87.598 0 121.016zM420.996 263.953c-151.911 0-275.054 123.144-275.054 275.050 0 151.911 123.148 275.054 275.054 275.054 151.902 0 275.050-123.148 275.050-275.054s-123.148-275.050-275.050-275.050z" />
<glyph unicode="&#xe956;" glyph-name="user" d="M691.2 328.534c98.133 59.734 162.132 166.399 162.132 290.132 0.002 187.734-153.6 341.334-341.332 341.334s-341.334-153.6-341.334-341.334c0-123.733 63.999-230.4 162.132-290.132-170.666-64.001-298.666-213.334-332.798-392.534h85.334c42.666 196.266 217.601 341.334 426.666 341.334s384-145.066 426.666-341.334h85.334c-34.132 183.467-162.132 332.8-332.8 392.534zM256 618.666c0 140.799 115.201 256 256 256s256-115.201 256-256-115.201-256-256-256-256 115.201-256 256z" />
<glyph unicode="&#xe957;" glyph-name="shop1" d="M866.034 667.882c-2.381 15.876-15.876 26.989-31.752 26.989h-182.574v74.617c0 76.998-62.71 139.709-139.709 139.709s-139.709-62.71-139.709-139.709v-74.617h-182.574c-15.876 0-29.371-11.113-31.752-26.989l-106.369-642.977c-1.588-9.526 0.794-19.051 7.144-26.195s15.082-11.113 24.608-11.113h857.302c0 0 0 0 0.794 0 18.257 0 32.546 14.288 32.546 32.546 0 3.969-0.794 7.144-1.588 10.319l-106.369 637.42zM437.383 769.488c0 41.278 33.34 74.617 74.617 74.617s74.617-33.34 74.617-74.617v-74.617h-149.234v74.617zM121.451 51.895l96.050 577.885h154.791v-181.78c0-18.257 14.288-32.546 32.546-32.546s32.546 14.288 32.546 32.546v181.78h149.234v-181.78c0-18.257 14.288-32.546 32.546-32.546s32.546 14.288 32.546 32.546v181.78h154.791l96.050-577.885h-781.098z" />
<glyph unicode="&#xe958;" glyph-name="shop2" d="M947.874 701.862c4.788 20.283 0.117 41.285-12.817 57.626s-32.303 25.713-53.142 25.713h-644.743l-29.164 122.678c-7.298 30.688-34.383 52.12-65.87 52.12-5.265 0-10.562-0.624-15.742-1.86-36.359-8.642-58.903-45.254-50.261-81.615l150.215-634.13c7.257-30.75 34.383-52.218 65.965-52.218h481.16c31.582 0 58.705 21.468 65.96 52.207l108.44 459.478zM719.836 325.726h-373.881l-76.446 323.929h526.775l-76.448-323.929zM474.752 30.85c0-52.386-42.467-94.853-94.853-94.853s-94.853 42.467-94.853 94.853c0 52.386 42.467 94.853 94.853 94.853s94.853-42.467 94.853-94.853zM785.33 30.85c0-52.386-42.467-94.853-94.853-94.853s-94.853 42.467-94.853 94.853c0 52.386 42.467 94.853 94.853 94.853s94.853-42.467 94.853-94.853z" />
<glyph unicode="&#xe959;" glyph-name="shop3" d="M1002.878 734.515h-597.126c-19.443 0-30.51-15.032-24.744-33.605l94.463-276.712c4.653-14.931 21.122-27.030 36.761-27.030h391.488c15.639 0 32.088 12.099 36.701 27.030l82.324 283.247c4.694 14.951-4.188 27.070-19.868 27.070zM549.075 78.393c0-49.332-39.992-89.324-89.324-89.324s-89.324 39.992-89.324 89.324c0 49.332 39.992 89.324 89.324 89.324s89.324-39.992 89.324-89.324zM927.048 77.28c0-49.332-39.992-89.324-89.324-89.324s-89.324 39.992-89.324 89.324c0 49.332 39.992 89.324 89.324 89.324s89.324-39.992 89.324-89.324zM944.974 306.265h-522.409l-209.138 601.779h-162.847c-27.94 0-50.58-22.64-50.58-50.58s22.64-50.58 50.58-50.58h90.902l209.138-601.779h594.354c27.94 0 50.58 22.64 50.58 50.58s-22.64 50.58-50.58 50.58z" />
<glyph unicode="&#xe95a;" glyph-name="shop4" d="M494.646 72.803c0-46.967-38.074-85.041-85.041-85.041s-85.040 38.074-85.040 85.041c0 46.967 38.074 85.041 85.041 85.041s85.040-38.074 85.040-85.041zM753.941 157.843c-46.967 0-85.041-38.074-85.041-85.041s38.074-85.041 85.041-85.041c46.967 0 85.041 38.074 85.041 85.041s-38.074 85.041-85.041 85.041zM1017.914 557.060l-104.641-311.015c0 0-8.662-46.156-52.795-46.156s-475.722 0-528.39 0-54.881 57.853-54.881 57.853-56.145 416.54-58.928 441.705-34.964 43.816-34.964 43.816l-138.468 64.681c-75.809 39.644-41.351 115.074 0 97.749 175.582-82.827 257.145-123.609 262.393-156.234 5.311-32.688 14.542-111.406 14.542-111.406v-0.506c1.075 0.316 1.834 0.506 1.834 0.506s538.443 0 647.194 0c78.149 0 47.104-81.121 47.104-80.994zM866.548 383.881l-1.075-0.063h-512.266l10.559-83.713h477.871l24.911 83.776zM916.435 552.697h-584.409l11.255-89.467c112.102 0 440.378 0 546.726 0l26.429 89.467z" />
<glyph unicode="&#xe95b;" glyph-name="shop5" d="M448.216 141.154c-56.377 0-102.255-45.901-102.255-102.255 0-56.377 45.878-102.255 102.255-102.255s102.255 45.878 102.255 102.255c0 56.377-45.855 102.255-102.255 102.255zM768.661 141.154c-56.377 0-102.255-45.901-102.255-102.255 0-56.377 45.878-102.255 102.255-102.255 56.354 0 102.255 45.878 102.255 102.255s-45.901 102.255-102.255 102.255zM1019.164 700.624c-4.296 5.499-10.884 8.702-17.884 8.702h-768.299l-63.331 233.255c-0.137 0.499-0.499 0.887-0.682 1.363-0.499 1.478-1.249 2.772-2.045 4.090-0.75 1.249-1.432 2.475-2.388 3.545-0.933 1.066-2.022 1.862-3.157 2.727-1.181 0.91-2.319 1.794-3.66 2.453-1.249 0.636-2.59 0.956-3.976 1.363-1.478 0.43-2.91 0.796-4.475 0.91-0.545 0.023-1.002 0.32-1.569 0.32h-124.975c-12.544 0-22.724-10.179-22.724-22.724s10.179-22.724 22.724-22.724h107.594l63.24-232.958 113.57-460.078c2.498-10.157 11.611-17.293 22.065-17.293h558.449c10.454 0 19.544 7.114 22.065 17.293l113.615 460.284c1.702 6.794 0.16 13.953-4.159 19.472z" />
<glyph unicode="&#xe95c;" glyph-name="shop6" d="M1017.204 711.755c-7.216 10.498-19.139 16.778-31.877 16.778h-671.605l-87.147 96.83c-9.778 10.866-23.705 17.069-38.322 17.069l-136.687 0.010c-0.005 0-0.005 0-0.005 0-28.474 0-51.56-23.081-51.56-51.555-0.005-28.474 23.081-51.56 51.555-51.566l113.724-0.005 70.316-78.132 148.992-387.417c5.746-14.934 20.091-24.788 36.092-24.788h409.965c16.002 0 30.351 9.853 36.092 24.788l154.681 402.212c4.579 11.892 2.998 25.272-4.212 35.775zM558.046 130.898c0-42.714-34.627-77.341-77.341-77.341s-77.341 34.627-77.341 77.341c0 42.714 34.627 77.341 77.341 77.341s77.341-34.627 77.341-77.341zM842.268 130.898c0-42.714-34.627-77.341-77.341-77.341s-77.341 34.627-77.341 77.341c0 42.714 34.627 77.341 77.341 77.341s77.341-34.627 77.341-77.341z" />
<glyph unicode="&#xe95d;" glyph-name="shop7" d="M682.667 755.2v34.133c0 94.242-76.425 170.667-170.667 170.667s-170.667-76.425-170.667-170.667v-34.133h-204.8v-819.2h750.933v819.2h-204.8zM409.6 789.333c0 56.559 45.841 102.4 102.4 102.4s102.4-45.841 102.4-102.4v-34.133h-204.8v34.133zM819.2 4.267h-614.4v682.667h136.533v-102.4h68.267v102.4h204.8v-102.4h68.267v102.4h136.533v-682.667z" />
<glyph unicode="&#xe95e;" glyph-name="shop8" d="M455.111 533.333h113.778c78.535 0 142.222 63.687 142.222 142.222v113.778h-56.889v-113.778c0-47.132-38.201-85.333-85.333-85.333h-113.778c-47.132 0-85.333 38.201-85.333 85.333v113.778h-56.889v-113.778c0-78.535 63.687-142.222 142.222-142.222zM56.889 960v-881.778c0-78.535 63.687-142.222 142.222-142.222h625.778c78.535 0 142.222 63.687 142.222 142.222v881.778h-910.222zM910.222 78.222c0-47.132-38.201-85.333-85.333-85.333h-625.778c-47.132 0-85.333 38.201-85.333 85.333v824.889h796.444v-824.889z" />
<glyph unicode="&#xe95f;" glyph-name="shop9" d="M1000.729 727.272h-256.002v139.636c0 51.343-41.749 93.092-93.090 93.092h-279.273c-51.343 0-93.092-41.749-93.092-93.092v-139.636h-255.999c-12.864 0-23.273-10.407-23.273-23.271v-674.909c0-51.34 41.749-93.092 93.092-93.092h837.819c51.34 0 93.092 41.749 93.092 93.092v674.909c-0.002 12.864-10.409 23.271-23.273 23.271zM325.818 866.908c0 25.658 20.887 46.545 46.545 46.545h279.273c25.658 0 46.545-20.887 46.545-46.545v-139.636h-372.362v139.636zM977.455 29.090c0-25.658-20.887-46.545-46.545-46.545h-837.819c-25.658 0-46.545 20.887-46.545 46.545v93.092h930.908v-93.092zM977.455 168.726h-930.91v512.001h232.728v-69.818c0-12.864 10.409-23.273 23.273-23.273s23.273 10.409 23.273 23.273v69.818h372.362v-69.818c0-12.864 10.409-23.273 23.273-23.273s23.273 10.409 23.273 23.273v69.818h232.726v-512.001z" />
<glyph unicode="&#xe960;" glyph-name="shop10" d="M760.954 567.78l-206.679 310.018c-9.396 9.394-23.486 18.789-37.578 18.789s-28.183-4.697-37.578-18.789l-206.679-310.018h-225.468c-28.183 0-46.972-18.789-46.972-46.972 0-4.697 0-9.394 0-14.092l117.431-436.844c9.394-37.578 46.972-70.459 89.248-70.459h610.642c42.275 0 79.853 28.183 89.248 70.459l117.431 436.844c0 4.697 0 9.394 0 14.092 0 28.183-18.789 46.972-46.972 46.972h-216.073zM375.78 567.78l140.917 206.679 140.917-206.679h-281.835zM516.697 192c-51.67 0-93.945 42.275-93.945 93.945s42.275 93.945 93.945 93.945 93.945-42.275 93.945-93.945-42.275-93.945-93.945-93.945z" />
<glyph unicode="&#xe961;" glyph-name="shop11" d="M1011.020 802.011c-10.16 11.65-24.789 18.352-40.215 18.352h-735.099l-10.373 61.919c-4.256 25.64-26.438 44.471-52.45 44.471h-119.688c-29.417 0-53.195-23.778-53.195-53.195s23.778-53.195 53.195-53.195h74.632l98.942-593.867c0.426-2.394 1.649-4.362 2.394-6.596 0.851-2.819 1.543-5.479 2.873-8.032 1.702-3.511 3.99-6.49 6.383-9.522 1.649-2.075 3.138-4.149 5.054-5.958 3.085-2.873 6.649-4.894 10.267-6.915 2.021-1.117 3.777-2.607 5.958-3.458 6.171-2.5 12.66-3.99 19.522-3.99 0.053 0 585.196 0 585.196 0 29.417 0 53.195 23.778 53.195 53.195s-23.778 53.195-53.195 53.195h-540.087l-8.83 53.195h602.112c26.491 0 48.939 19.469 52.663 45.641l53.195 372.364c2.181 15.32-2.394 30.8-12.448 42.396zM909.472 713.974l-15.161-106.39h-189.48v106.39h204.64zM651.636 713.974v-106.39h-159.584v106.39h159.584zM651.636 554.39v-106.39h-159.584v106.39h159.584zM438.857 713.974v-106.39h-159.584c-2.819 0-5.373-0.798-7.873-1.596l-17.98 107.985h185.437zM280.017 554.39h158.84v-106.39h-141.126l-17.714 106.39zM704.831 448v106.39h181.82l-15.161-106.39h-166.659zM438.857 49.039c0-44.068-35.724-79.792-79.792-79.792s-79.792 35.724-79.792 79.792c0 44.068 35.724 79.792 79.792 79.792s79.792-35.724 79.792-79.792zM917.61 49.039c0-44.068-35.724-79.792-79.792-79.792s-79.792 35.724-79.792 79.792c0 44.068 35.724 79.792 79.792 79.792s79.792-35.724 79.792-79.792z" />
<glyph unicode="&#xe962;" glyph-name="shop12" d="M949.046 866.908h-762.865c-2.297 0-4.394-0.864-6.548-1.512l-18.751 61.617c-5.963 19.595-24.037 32.987-44.52 32.987h-93.090c-12.853 0-23.273-10.42-23.273-23.273v-46.545c0-12.853 10.42-23.273 23.273-23.273h58.615l145.41-477.84-54.308-63.358c-21.465-25.041-31.13-59.544-21.251-91.010 12.635-40.244 48.153-65.972 89.103-65.972h666.795c12.853 0 23.273 10.42 23.273 23.273v46.545c0 12.853-10.42 23.273-23.273 23.273h-666.797l73.774 86.068c1.855 2.164 3.218 4.608 4.625 7.023h450.989c36.072 0 68.898 20.832 84.258 53.47l162.402 345.098c4.658 9.932 7.113 20.954 7.113 31.887v6.591c0 41.391-33.559 74.95-74.954 74.95zM372.365 29.090c0-51.413-41.679-93.092-93.092-93.092s-93.092 41.679-93.092 93.092c0 51.413 41.679 93.092 93.092 93.092s93.092-41.679 93.092-93.092zM930.91 29.090c0-51.413-41.679-93.092-93.092-93.092s-93.092 41.679-93.092 93.092c0 51.413 41.679 93.092 93.092 93.092s93.092-41.679 93.092-93.092z" />
<glyph unicode="&#xe963;" glyph-name="shop13" d="M382.499 171.375c-47.235 0-85.531-38.275-85.531-85.492 0-47.254 38.296-85.531 85.531-85.531 47.217 0 85.512 38.277 85.512 85.531 0 47.213-38.296 85.492-85.512 85.492zM755.745 171.375c-47.254 0-85.531-38.275-85.531-85.492 0-47.254 38.277-85.531 85.531-85.531 47.219 0 85.533 38.277 85.533 85.531 0 47.213-38.314 85.492-85.533 85.492zM970.582 640.161l-473.743 0.039c-23.688 0-42.891-19.203-42.891-42.891s19.203-42.891 42.891-42.891l419.145 0.021-26.59-89.983-426.144-0.091c-21.974 0-39.79-17.816-39.79-39.79 0-21.976 17.816-39.79 39.79-39.79l402.588-0.157-24.996-84.158h-480.241l-31.863 254.007-30.424 247.457c-2.476 19.581-16.673 35.658-35.799 40.536l-202.567 51.675c-25.718 6.565-51.884-8.969-58.445-34.687s8.969-51.886 34.687-58.445l170.874-43.591 66.541-499.372c0 0 2.263-58.255 55.169-58.255h530.829c44.478 0 53.077 46.38 53.077 46.38l105.203 312.448c0 0.041 31.193 81.537-47.299 81.537z" />
<glyph unicode="&#xe964;" glyph-name="shop14" d="M119.405 258.16c0-78.658 63.757-142.688 142.302-143.139-31.248-15.391-52.8-47.559-52.8-84.682 0-52.021 42.315-94.339 94.329-94.339s94.336 42.318 94.336 94.339c0 37.105-21.542 69.263-52.762 84.661h364.23c-31.22-15.398-52.755-47.556-52.755-84.661 0-52.021 42.318-94.339 94.329-94.339 52.014 0 94.329 42.318 94.329 94.339 0 37.105-21.535 69.263-52.755 84.661h77.731c19.153 0 34.675 15.525 34.675 34.678 0 19.149-15.522 34.675-34.675 34.675h-607.384c-40.681 0-73.783 33.113-73.783 73.807v56.368c21.563-13.022 46.814-20.532 73.783-20.532h488.083c75.49 0 150.862 56.865 171.591 129.455l89.522 313.354c2.989 10.461 0.896 21.718-5.658 30.406-6.551 8.688-16.808 13.791-27.682 13.791h-789.638v35.833c0 78.941-64.209 143.163-143.139 143.163-19.149 0-34.671-15.529-34.671-34.678s15.522-34.675 34.675-34.675c40.688 0 73.79-33.113 73.79-73.814v-558.673z" />
<glyph unicode="&#xe965;" glyph-name="shop15" d="M435.005 78.246c0-48.050-38.952-87.001-87.001-87.001s-87.001 38.952-87.001 87.001c0 48.050 38.952 87.001 87.001 87.001s87.001-38.952 87.001-87.001zM783.007 78.246c0-48.050-38.952-87.001-87.001-87.001s-87.001 38.952-87.001 87.001c0 48.050 38.952 87.001 87.001 87.001s87.001-38.952 87.001-87.001zM0 904.755h174.001v-87.001h-174.001v87.001zM242.732 730.752l-25.23 174.001h-43.502l-43.5-6.089 92.656-646.415h588.126l212.717 478.505h-781.268zM754.731 339.249h-455.883l-43.5 304.502h634.67l-135.287-304.502z" />
<glyph unicode="&#xe966;" glyph-name="shop16" d="M1001.396 707.619c-18.974 23.138-47.323 39.729-77.209 39.729h-754.382l-38.036 153.905c-8.707 35.854-44.717 56.387-80.66 47.612-35.854-8.685-57.901-45.564-49.216-81.44l135.755-593.173c9.309-46.677 50.307-83.645 97.919-83.645h619.718c47.612 0 88.611 36.767 97.897 83.444l68.88 347.517c5.879 29.329-1.715 62.934-20.666 86.050zM432.765 36.391c0-50.427-40.879-91.305-91.305-91.305s-91.305 40.879-91.305 91.305c0 50.427 40.879 91.305 91.305 91.305s91.305-40.879 91.305-91.305zM847.937 36.391c0-50.427-40.879-91.305-91.305-91.305s-91.305 40.879-91.305 91.305c0 50.427 40.879 91.305 91.305 91.305s91.305-40.879 91.305-91.305z" />
<glyph unicode="&#xe967;" glyph-name="shop17" d="M999.275 786.099c-8.785 11.798-22.627 18.749-37.333 18.749h-716.863l-12.639 113.745c-2.619 23.574-22.544 41.407-46.26 41.407h-124.122c-25.706 0-46.546-20.84-46.546-46.546s20.84-46.546 46.546-46.546h82.46l12.58-113.215c0.037-0.394 0.081-0.785 0.13-1.176l44.749-402.751c2.619-23.574 22.547-41.407 46.263-41.407h593.005c20.567 0 38.698 13.501 44.591 33.203l120.699 403.396c4.214 14.091 1.52 29.346-7.261 41.14zM806.588 401.451h-516.686l-34.481 310.305h644.007l-92.84-310.305zM341.332 215.274c-76.996 0-139.637-62.641-139.637-139.637 0-76.999 62.641-139.637 139.637-139.637s139.637 62.638 139.637 139.637c0 76.996-62.641 139.637-139.637 139.637zM341.332 29.091c-25.665 0-46.546 20.877-46.546 46.546 0 25.665 20.88 46.546 46.546 46.546s46.546-20.88 46.546-46.546c0-25.668-20.88-46.546-46.546-46.546zM710.595 215.274c-76.999 0-139.637-62.641-139.637-139.637 0-76.999 62.638-139.637 139.637-139.637s139.637 62.638 139.637 139.637c0 76.996-62.641 139.637-139.637 139.637zM710.595 29.091c-25.665 0-46.546 20.877-46.546 46.546 0 25.665 20.88 46.546 46.546 46.546s46.546-20.88 46.546-46.546c0-25.668-20.88-46.546-46.546-46.546z" />
<glyph unicode="&#xe968;" glyph-name="shop18" d="M787.684 93.532c0-21.752 7.714-40.31 23.087-55.683 15.372-15.387 33.945-23.087 55.706-23.087 21.729 0 40.302 7.699 55.674 23.087 15.387 15.372 23.087 33.93 23.087 55.683s-7.69 40.31-23.087 55.698c-15.372 15.372-33.945 23.071-55.674 23.071-21.761 0-40.334-7.699-55.706-23.071-15.372-15.387-23.087-33.945-23.087-55.698zM1012.303 790.779c-7.798 7.796-17.023 11.695-27.693 11.695h-739.071c-0.416 2.869-1.339 8.096-2.774 15.685-1.435 7.593-2.561 13.642-3.382 18.159-0.826 4.498-2.356 9.939-4.617 16.297-2.257 6.363-4.923 11.393-7.999 15.077-3.071 3.703-7.173 6.874-12.303 9.548-5.126 2.658-10.975 3.994-17.536 3.994h-157.536c-10.674 0-19.903-3.906-27.697-11.691-7.796-7.794-11.695-17.030-11.695-27.695s3.899-19.897 11.695-27.69c7.8-7.796 17.032-11.691 27.697-11.691h125.524l108.917-506.468c-0.815-1.638-5.020-9.426-12.613-23.382-7.589-13.956-13.639-26.156-18.148-36.616-4.511-10.473-6.768-18.571-6.768-24.311 0-10.665 3.899-19.899 11.691-27.706 7.805-7.772 17.032-11.684 27.699-11.684h630.128c10.665 0 19.899 3.91 27.69 11.684 7.803 7.805 11.697 17.038 11.697 27.706s-3.895 19.901-11.697 27.69c-7.79 7.79-17.023 11.7-27.69 11.7h-566.138c9.85 19.696 14.773 32.81 14.773 39.375 0 4.115-0.513 8.63-1.541 13.542s-2.257 10.357-3.692 16.314c-1.438 5.932-2.356 10.344-2.765 13.219l642.476 75.075c10.245 1.239 18.661 5.634 25.225 13.234 6.565 7.583 9.839 16.299 9.839 26.152v315.083c-0.004 10.665-3.893 19.897-11.695 27.703zM236.301 93.532c0-21.752 7.688-40.31 23.076-55.683 15.392-15.387 33.948-23.087 55.698-23.087 21.737 0 40.304 7.699 55.685 23.087 15.387 15.372 23.084 33.93 23.084 55.683s-7.69 40.31-23.084 55.698c-15.383 15.372-33.948 23.071-55.685 23.071-21.748 0-40.315-7.699-55.698-23.071-15.379-15.387-23.076-33.945-23.076-55.698z" />
<glyph unicode="&#xe969;" glyph-name="shop19" d="M335.637 530.667c23.552 0 42.667 19.115 42.667 42.667v166.4c0 74.389 60.523 134.933 134.933 134.933 74.389 0 134.933-60.544 134.933-134.933v-166.4c0-23.552 19.115-42.667 42.667-42.667s42.667 19.115 42.667 42.667v166.4c0 121.451-98.816 220.267-220.267 220.267-121.429 0-220.245-98.816-220.245-220.267v-166.4c-0.021-23.552 19.093-42.667 42.645-42.667zM1002.667 626.539h-226.496v-53.205c0-47.061-38.272-85.333-85.333-85.333-47.040 0-85.333 38.272-85.333 85.333v53.205h-184.512v-53.205c0-47.061-38.272-85.333-85.333-85.333s-85.333 38.272-85.333 85.333v53.205h-228.992c-11.776 0-19.051-9.28-16.256-20.715l149.269-607.957c9.024-34.176 44.971-61.867 80.32-61.867h554.667c35.371 0 71.296 27.712 80.363 61.867l149.248 607.957c2.773 11.456-4.48 20.715-16.277 20.715z" />
<glyph unicode="&#xe96a;" glyph-name="add" d="M1024 496.762h-463.238v463.238h-97.524v-463.238h-463.238v-97.524h463.238v-463.238h97.524v463.238h463.238z" />
<glyph unicode="&#xe96b;" glyph-name="add-filled-cross-sign" d="M1002.326 577.623h-360.703v360.703c0 11.964-9.71 21.674-21.674 21.674h-215.897c-11.964 0-21.674-9.71-21.674-21.674v-360.703h-360.703c-11.964 0-21.674-9.71-21.674-21.674v-215.897c0-11.964 9.71-21.674 21.674-21.674h360.703v-360.703c0-11.964 9.71-21.674 21.674-21.674h215.897c11.964 0 21.674 9.71 21.674 21.674v360.703h360.703c11.964 0 21.674 9.71 21.674 21.674v215.897c0 11.964-9.688 21.674-21.674 21.674z" />
<glyph unicode="&#xe96c;" glyph-name="bleed" d="M576 546.755h-128v413.245h128v-413.245zM448-64h128v413.245h-128v-413.245zM610.749 384h413.251v128h-413.251v-128zM413.251 512h-413.251v-128h413.251v128z" />
<glyph unicode="&#xe96d;" glyph-name="external-link" d="M960.884 960h-352.097c-34.804 0-63.116-28.316-63.116-63.116s28.312-63.116 63.116-63.116h199.724l-333.162-333.158c-11.927-11.92-18.491-27.767-18.491-44.632s6.56-32.708 18.484-44.618c11.924-11.934 27.767-18.502 44.632-18.502 16.857 0 32.708 6.564 44.636 18.491l333.158 333.162v-199.724c0-34.8 28.316-63.116 63.116-63.116s63.116 28.316 63.116 63.116v352.097c0 34.8-28.316 63.116-63.116 63.116zM725.426 44.199h-617.227v617.227h464.212l108.199 108.199h-626.51c-29.877 0-54.099-24.222-54.099-54.099v-725.426c0-29.877 24.222-54.099 54.099-54.099h725.426c29.877 0 54.099 24.222 54.099 54.099v626.51l-108.199-108.199v-464.212z" />
<glyph unicode="&#xe96e;" glyph-name="foreign" d="M977.454 960h-372.364c-25.706 0-46.546-20.84-46.546-46.546s20.84-46.546 46.546-46.546h259.994l-479.086-479.088c-18.178-18.178-18.178-47.646 0-65.824 9.086-9.088 20.998-13.632 32.91-13.632s23.826 4.542 32.914 13.634l479.088 479.086v-259.994c0-25.706 20.84-46.546 46.546-46.546s46.546 20.84 46.546 46.546v372.364c-0.002 25.706-20.842 46.546-46.548 46.546zM791.272 494.546c-25.706 0-46.546-20.84-46.546-46.546v-418.91h-651.636v651.638h418.91c25.706 0 46.546 20.84 46.546 46.546s-20.84 46.544-46.546 46.544h-465.454c-25.706 0-46.546-20.84-46.546-46.546v-744.728c0-25.704 20.84-46.544 46.546-46.544h744.728c25.706 0 46.546 20.84 46.546 46.546v465.454c-0.002 25.706-20.842 46.546-46.548 46.546z" />
<glyph unicode="&#xe96f;" glyph-name="link" d="M640.977 262.351l54.718 54.718c15.634 15.634 15.634 39.084 0 54.718l-257.954 257.954c-15.634 15.634-39.084 15.634-54.718 0l-54.718-54.718c-15.634-15.634-15.634-39.084 0-54.718l257.954-257.954c15.634-15.634 39.084-15.634 54.718 0zM211.053 504.672c-31.267 31.267-50.809 74.26-50.809 121.16 0 93.802 78.168 171.969 171.969 171.969 46.901 0 89.893-19.542 121.16-50.809l97.71-97.71c15.634-15.634 39.084-15.634 54.718 0l54.718 54.718c15.634 15.634 15.634 39.084 0 54.718l-97.71 97.71c-62.534 62.534-144.611 97.71-234.504 97.71-179.786 0-328.305-148.519-328.305-328.305 0-85.985 35.176-171.969 97.71-234.504l97.71-97.71c15.634-15.634 39.084-15.634 54.718 0l54.718 54.718c15.634 15.634 15.634 39.084 0 54.718l-93.802 101.618zM922.382 500.763l-97.71 97.71c-15.634 15.634-39.084 15.634-54.718 0l-54.718-54.718c-15.634-15.634-15.634-39.084 0-54.718l97.71-97.71c31.267-31.267 50.809-74.26 50.809-121.16 0-93.802-78.168-171.969-171.969-171.969-46.901 0-89.893 19.542-121.16 50.809l-97.71 97.71c-15.634 15.634-39.084 15.634-54.718 0l-54.718-54.718c-15.634-15.634-15.634-39.084 0-54.718l97.71-97.71c62.534-62.534 144.611-97.71 234.504-97.71 179.786 0 328.305 148.519 328.305 328.305-3.908 85.985-39.084 168.061-101.618 230.595z" />
<glyph unicode="&#xe970;" glyph-name="plus" d="M1024 481.758h-478.242v478.242h-67.516v-478.242h-478.242v-67.516h478.242v-478.242h67.516v478.242h478.242z" />
<glyph unicode="&#xe971;" glyph-name="plus-button" d="M910.224 960h-796.448c-62.802 0-113.776-50.974-113.776-113.776v-796.448c0-62.806 50.974-113.776 113.776-113.776h796.448c62.806 0 113.776 50.974 113.776 113.776v796.448c0 62.802-50.971 113.776-113.776 113.776zM910.224 49.776h-796.448v796.448h796.448v-796.448zM284.444 391.112h170.668v-170.668c0-31.288 25.485-56.888 56.888-56.888 31.288 0 56.888 25.6 56.888 56.888v170.668h170.668c31.288 0 56.888 25.6 56.888 56.888 0 31.403-25.6 56.888-56.888 56.888h-170.668v170.668c0 31.403-25.6 56.888-56.888 56.888-31.403 0-56.888-25.485-56.888-56.888v-170.668h-170.668c-31.403 0-56.888-25.485-56.888-56.888 0-31.288 25.485-56.888 56.888-56.888z" />
<glyph unicode="&#xe972;" glyph-name="tag" d="M927.814 960h-288.563c-52.908 0-126.797-30.605-164.204-68.014l-446.992-446.99c-37.407-37.407-37.407-98.625 0-136.032l344.911-344.907c37.407-37.409 98.621-37.409 136.030 0l446.992 446.99c37.407 37.409 68.014 111.301 68.014 164.202v288.563c-0.002 52.904-43.285 96.188-96.188 96.188zM800.001 639.999c-53.019 0-96 42.979-96 96 0 53.019 42.981 96 96 96s96-42.981 96-96c0-53.019-42.981-96-96-96z" />
<glyph unicode="&#xe973;" glyph-name="category" d="M237.715 557.709h-182.863c-15.233 0-28.189-5.332-38.856-16-10.666-10.662-15.996-23.613-15.996-38.856v-109.726c0-15.231 5.33-28.177 15.996-38.84 10.668-10.666 23.623-16 38.856-16h182.863c15.233 0 28.189 5.334 38.856 16 10.668 10.664 15.996 23.609 15.996 38.84v109.726c0 15.243-5.328 28.195-15.996 38.856s-23.623 16-38.856 16zM237.715 850.292h-182.863c-15.233 0-28.189-5.33-38.856-15.998-10.666-10.668-15.996-23.623-15.996-38.856v-109.722c0-15.243 5.33-28.203 15.996-38.862 10.668-10.662 23.623-16 38.856-16h182.863c15.233 0 28.189 5.338 38.856 16s15.996 23.613 15.996 38.856v109.72c0 15.233-5.328 28.189-15.996 38.862-10.668 10.664-23.623 16-38.856 16zM237.715 265.14h-182.863c-15.233 0-28.189-5.328-38.856-16-10.666-10.67-15.996-23.623-15.996-38.856v-109.732c0-15.231 5.33-28.193 15.996-38.848 10.668-10.672 23.623-15.994 38.856-15.994h182.863c15.233 0 28.189 5.33 38.856 15.994 10.668 10.656 15.996 23.617 15.996 38.848v109.732c0 15.233-5.328 28.187-15.996 38.85s-23.623 16.006-38.856 16.006zM969.136 557.709h-548.568c-15.239 0-28.189-5.332-38.856-16s-15.996-23.613-15.996-38.856v-109.726c0-15.231 5.328-28.177 15.996-38.84 10.662-10.666 23.617-16 38.856-16h548.582c15.231 0 28.191 5.334 38.848 16 10.672 10.664 16 23.609 16 38.84v109.726c0 15.243-5.328 28.195-16.006 38.856-10.666 10.668-23.609 16-38.856 16zM969.136 265.14h-548.568c-15.239 0-28.189-5.328-38.856-16-10.668-10.67-15.996-23.617-15.996-38.848v-109.726c0-15.233 5.328-28.199 15.996-38.862 10.662-10.664 23.617-15.986 38.856-15.986h548.582c15.231 0 28.191 5.328 38.848 15.986 10.672 10.67 16 23.629 16 38.862v109.726c0 15.231-5.328 28.191-16.006 38.848-10.666 10.658-23.609 16-38.856 16zM1007.992 834.286c-10.666 10.662-23.611 15.998-38.856 15.998h-548.568c-15.239 0-28.189-5.33-38.856-15.998s-15.996-23.623-15.996-38.856v-109.722c0-15.243 5.328-28.187 15.996-38.856 10.662-10.662 23.617-16 38.856-16h548.582c15.231 0 28.177 5.338 38.848 16s16 23.613 16 38.856v109.722c0 15.235-5.328 28.189-16.006 38.856z" />
<glyph unicode="&#xe974;" glyph-name="house-black-building-shape" d="M127.998 0.012h319.97v255.997h128.024v-255.997h320.009v383.995h127.986l-511.981 511.994-512.006-511.994h127.998z" />
<glyph unicode="&#xe975;" glyph-name="pencil2" d="M0 217.172v-281.175h281.177l562.352 562.352-281.182 281.18-562.347-562.357zM245.351 22.516v0l-72.324-0.009v86.519h-86.512v72.331l61.507 61.507 158.835-158.833-61.507-61.514zM583.995 664.621c9.9 0 14.858-4.96 14.858-14.867 0-4.512-1.572-8.336-4.732-11.496l-366.344-366.342c-3.156-3.144-6.989-4.723-11.491-4.723-9.905 0-14.865 4.967-14.865 14.865 0 4.512 1.577 8.336 4.728 11.496l366.346 366.337c3.146 3.153 6.979 4.73 11.501 4.73zM998.981 776.163l-158.831 158.156c-17.121 17.114-37.625 25.681-61.51 25.681-24.344 0-44.606-8.568-60.825-25.681l-112.2-111.525 281.182-281.175 112.2 112.195c16.671 16.674 25.002 36.95 25.002 60.835-0.009 23.425-8.338 43.934-25.019 61.514z" />
<glyph unicode="&#xe976;" glyph-name="list-menu" d="M0 823.026h1024v-87.787h-1024v87.787zM0 494.58h1024v-87.787h-1024v87.787zM0 160.794h1024v-87.82h-1024v87.82z" />
<glyph unicode="&#xe977;" glyph-name="link-symbol" d="M944.42 496.040l-192.228-192.166c-106.095-106.157-278.207-106.157-384.32 0-16.715 16.667-29.79 35.448-41.273 54.815l89.317 89.311c4.246 4.282 9.489 6.735 14.499 9.625 6.175-21.097 16.954-41.069 33.546-57.663 52.985-53.027 139.201-52.953 192.154 0l192.168 192.161c53.025 53.020 53.025 139.217 0 192.197-52.955 52.98-139.15 52.98-192.168 0l-68.335-68.409c-55.454 21.592-115.198 27.397-173.358 18.874l145.616 145.611c106.157 106.137 278.225 106.137 384.383 0 106.106-106.133 106.106-278.227 0-384.358zM436.254 180.054l-68.384-68.409c-52.98-52.953-139.201-52.953-192.19 0-52.985 53.027-52.985 139.223 0 192.228l192.19 192.166c53.023 53.016 139.185 53.016 192.166 0 16.553-16.558 27.344-36.525 33.577-57.596 5.039 2.928 10.217 5.308 14.461 9.558l89.311 89.275c-11.409 19.444-24.552 38.157-41.273 54.842-106.086 106.137-278.214 106.137-384.351 0l-192.161-192.168c-106.126-106.169-106.126-278.214 0-384.374 106.137-106.104 278.225-106.104 384.36 0l145.654 145.643c-58.192-8.572-117.952-2.718-173.358 18.834z" />
<glyph unicode="&#xe978;" glyph-name="magnifier8" d="M420.662 960c-232.223 0-420.479-188.256-420.479-420.479s188.256-420.479 420.479-420.479 420.479 188.256 420.479 420.479c-0.201 232.141-188.338 420.278-420.479 420.479zM420.662 265.295c-151.45 0-274.226 122.775-274.226 274.226s122.775 274.226 274.226 274.226 274.226-122.775 274.226-274.226c-0.201-151.368-122.858-274.025-274.226-274.226zM1002.386 60.905l-146.254 146.254c-28.574 28.574-74.9 28.574-103.475 0s-28.574-74.9 0-103.475l146.254-146.254c28.574-28.574 74.9-28.574 103.475 0s28.574 74.9 0 103.475zM529.621 594.366h-54.114v54.114c0 30.291-24.555 54.845-54.845 54.845s-54.845-24.555-54.845-54.845v-54.114h-54.114c-30.291 0-54.845-24.555-54.845-54.845s24.555-54.845 54.845-54.845h54.114v-54.114c0-30.291 24.555-54.845 54.845-54.845s54.845 24.555 54.845 54.845v54.114h54.114c30.291 0 54.845 24.555 54.845 54.845s-24.555 54.845-54.845 54.845z" />
<glyph unicode="&#xe979;" glyph-name="phone-call" d="M833.548 191.058c-11.566 12.407-23.553 24.183-35.329 35.539-5.888 5.678-11.776 11.566-17.664 17.454l-51.311 51.311c-21.87 21.87-47.526 33.436-73.812 33.436-26.497 0-51.942-11.566-73.812-33.436-5.257-5.257-10.725-10.515-15.982-15.772-12.197-11.987-24.814-24.394-37.011-37.432-21.66 10.515-43.741 25.025-69.396 45.213-33.436 27.338-62.036 54.676-87.481 83.696-13.669 15.772-37.642 17.454-53.414 3.575-15.772-13.669-17.454-37.642-3.575-53.414 28.179-32.385 59.933-62.877 96.944-92.949 0.21 0 0.21-0.21 0.421-0.21 37.222-29.441 68.555-48.788 101.991-62.456 0.841-0.421 1.682-0.631 2.523-0.841 7.991-2.734 31.964-10.725 55.517 12.617 0.421 0.421 1.051 1.051 1.472 1.472 14.3 16.192 29.441 30.913 45.423 46.685 5.468 5.257 10.935 10.725 16.403 16.192 5.047 5.047 12.828 11.356 20.398 11.356s15.141-6.098 20.398-11.356l51.311-51.311c6.098-6.098 12.407-12.197 18.295-18.085 11.776-11.356 22.711-22.291 33.226-33.436 0.21-0.421 0.631-0.631 0.841-0.841 7.991-7.991 16.613-20.609-0.421-38.694l-64.139-64.139c-13.669-13.669-28.81-20.819-47.946-22.501-32.595-2.734-67.293 3.575-112.506 20.398-75.284 27.758-145.521 70.027-221.437 133.114-91.687 76.756-163.817 168.864-214.707 273.799-18.085 38.063-39.324 88.533-42.899 142.157-1.893 29.861 6.098 51.311 25.445 69.396 14.090 11.776 26.497 24.604 38.273 36.801 7.57 7.991 14.72 15.351 22.291 22.291l0.21 0.21c14.931 14.3 27.338 14.51 41.217 0.631l103.674-103.674c0.21-0.21 0.421-0.421 0.631-0.631 4.416-4.206 9.673-10.725 9.884-17.875 0-7.57-5.678-14.931-10.304-19.767l-64.349-64.349c-14.72-14.72-14.72-38.694 0-53.624 14.72-14.72 38.694-14.72 53.624 0l64.349 64.349c21.66 21.66 32.805 47.105 32.595 74.022-0.21 26.286-11.566 51.101-32.805 71.499l-103.463 103.463c-43.32 43.32-102.201 43.53-146.993 0.631-8.832-8.201-16.823-16.613-24.814-24.814-11.145-11.566-21.66-22.501-33.016-31.964-0.421-0.421-0.841-0.841-1.472-1.262-36.801-33.436-53.624-77.177-50.47-130.17 4.416-66.452 29.020-125.754 50.049-169.915v-0.21c55.727-114.819 134.376-215.338 234.264-299.034 82.644-68.555 160.032-115.029 243.517-145.942 30.703-11.356 75.495-25.656 125.123-25.656 6.519 0 13.248 0.21 19.978 0.841h0.21c36.801 3.154 68.765 18.085 95.052 44.371l64.349 64.349c0.21 0.21 0.421 0.421 0.631 0.631 41.427 43.11 41.217 102.412 0 144.26zM818.617 448.244c-13.038 76.546-49.208 146.363-104.515 201.879-54.886 55.096-124.703 91.266-201.459 104.304-20.609 3.575-40.166-10.304-43.741-30.913s10.304-40.166 30.913-43.741c60.984-10.304 116.712-39.324 160.873-83.486s73.181-99.888 83.486-160.873c3.154-18.506 19.136-31.544 37.222-31.544 2.103 0 4.206 0.21 6.309 0.631 20.609 3.575 34.488 23.132 30.913 43.741zM1023.441 457.497c-21.239 125.334-80.541 239.522-171.177 330.157s-204.824 149.938-330.157 171.177c-20.609 3.575-40.166-10.304-43.741-30.913s10.304-40.166 30.913-43.741c109.772-18.716 209.871-70.448 289.361-149.938s131.432-179.589 149.938-289.361c3.154-18.506 19.136-31.544 37.222-31.544 2.103 0 4.206 0.21 6.309 0.631 21.029 3.365 34.908 22.922 31.333 43.53z" />
<glyph unicode="&#xe97a;" glyph-name="envelope2" d="M994.764 834.834c16.058 0 29.236-13.178 29.236-29.236v-715.223c0-16.058-13.178-29.236-29.236-29.236h-965.944c-16.058 0.026-28.821 13.204-28.821 29.262v715.197c0 16.058 12.763 29.236 28.821 29.236h30.455c306.754 0 613.508 0 920.651 0h14.838zM511.792 432.15l398.144 344.628h-15.227c-250.332 0-501.079 0-751.852 0h-29.21l179.098-155.232 219.047-189.396zM768.713 577.913l-237.569-205.869c-10.714-9.469-27.186-9.884-38.289-0.415l-434.799 376.743v-600.745l196.815 170.874 110.354 95.126c11.933 10.714 30.481 9.469 40.754-2.879 10.714-11.933 9.053-30.481-2.879-40.754l-289.451-250.332h796.315l-289.451 250.332c-11.933 10.299-13.178 28.821-2.879 40.754 10.714 12.348 28.821 13.593 40.754 2.879l110.354-95.126 197.23-170.874v600.745l-197.256-170.459z" />
<glyph unicode="&#xe97b;" glyph-name="shop20" d="M40.624 750.326h156.135l158.44-504.64c5.322-16.941 21.015-28.453 38.768-28.453h494.67c22.435 0 40.624 18.188 40.624 40.624s-18.188 40.624-40.624 40.624h-464.846l-31.712 100.998h507.726c35.596 0 68.193 26.215 75.804 60.997l46.78 213.386c4.317 19.714-0.139 39.653-12.242 54.704-12.103 15.032-30.62 23.666-50.82 23.666h-677.992l-15.985 50.89c-5.322 16.941-21.015 28.453-38.751 28.453h-185.976c-22.435 0-40.624-18.188-40.624-40.624s18.188-40.624 40.624-40.624zM897.325 480.709l-528.082-0.139c-0.503 0.156-1.318 0.693-1.647 0.693-0.105 0-0.156-0.070-0.139-0.226l-17.807 54.184h559.5l-11.826-54.512zM306.841 670.966h631.784l-11.826-54.495h-603.833l-17.911 54.495h1.785zM505.559 122.078c0-31.84-25.812-57.652-57.652-57.652s-57.652 25.812-57.652 57.652c0 31.84 25.812 57.652 57.652 57.652s57.652-25.812 57.652-57.652zM862.614 122.078c0-31.84-25.812-57.652-57.652-57.652s-57.652 25.812-57.652 57.652c0 31.84 25.812 57.652 57.652 57.652s57.652-25.812 57.652-57.652z" />
<glyph unicode="&#xe97c;" glyph-name="magnifier9" d="M705.315 291.547c65.463 70.869 106.304 165.762 106.304 270.264 0 219.215-178.374 398.189-398.189 398.189s-398.189-178.974-398.189-398.189 178.374-398.189 398.189-398.189c89.488 0 171.767 29.428 238.432 79.277l296.089-296.089c7.207-7.207 16.216-10.811 25.225-10.811s18.617 3.604 25.225 10.811c13.814 13.814 13.814 36.635 0 51.049l-293.085 293.687zM87.311 561.811c0 179.576 145.943 326.119 326.119 326.119 179.576 0 326.119-145.943 326.119-326.119s-145.943-326.119-326.119-326.119-326.119 146.543-326.119 326.119z" />
<glyph unicode="&#xe97d;" glyph-name="shop21" d="M994.749 240.259h-617.347c-10.413 0-20.050 5.564-25.303 14.579l-348.12 598.789c-8.113 13.957-3.388 31.862 10.569 39.975 13.957 8.175 31.831 3.388 40.006-10.6l339.696-584.241h600.499c16.164 0 29.251-13.118 29.251-29.251 0-16.164-13.087-29.251-29.251-29.251zM511.969-1.613c-54.647 0-99.099 44.483-99.099 99.099s44.483 99.099 99.099 99.099 99.099-44.483 99.099-99.099-44.451-99.099-99.099-99.099zM511.969 138.083c-22.381 0-40.597-18.216-40.597-40.597s18.185-40.597 40.597-40.597 40.597 18.216 40.597 40.597-18.185 40.597-40.597 40.597zM913.4-1.613c-54.647 0-99.099 44.483-99.099 99.099s44.483 99.099 99.099 99.099c54.647 0 99.13-44.483 99.13-99.099s-44.483-99.099-99.13-99.099zM913.4 138.083c-22.381 0-40.597-18.216-40.597-40.597s18.185-40.597 40.597-40.597c22.381 0 40.597 18.216 40.597 40.597s-18.185 40.597-40.597 40.597zM994.749 361.18h-571.279c-16.164 0-29.251 13.118-29.251 29.251 0 16.164 13.087 29.251 29.251 29.251h571.279c16.164 0 29.251-13.118 29.251-29.251s-13.087-29.251-29.251-29.251zM994.749 481.168h-631.988c-16.164 0-29.251 13.118-29.251 29.251s13.087 29.251 29.251 29.251h631.988c16.164 0 29.251-13.118 29.251-29.251s-13.087-29.251-29.251-29.251zM994.749 601.093h-691.267c-16.164 0-29.251 13.118-29.251 29.251 0 16.164 13.087 29.251 29.251 29.251h691.236c16.164 0 29.251-13.118 29.251-29.251 0.031-16.133-13.056-29.251-29.22-29.251z" />
</font>
</defs>
</svg>
